<svg xmlns="http://www.w3.org/2000/svg" width="63" height="63" viewBox="0 0 63 63" fill="none">
  <g clip-path="url(#clip0_2_55)">
    <path d="M48.824 8.65881C54.8163 12.2608 58.4616 17.5428 60.3844 24.1648C61.2364 26.971 61.4212 29.9362 60.924 32.8259C60.203 37.0027 59.1826 41.074 57.5308 44.988C55.1933 50.5329 51.31 54.6863 46.1236 57.6805C43.4374 59.2315 40.5885 60.4423 37.7231 61.625C32.254 63.8824 26.8838 63.0681 21.5137 61.2777C11.2682 57.8588 5.29946 50.371 1.65651 40.6281C-0.516067 34.8181 -0.499596 29.0151 1.45619 23.1769C1.88097 21.7901 2.51672 20.4765 3.34129 19.2816C8.02105 12.8404 14.2042 8.55321 21.9284 6.48121C22.9817 6.19728 23.3422 6.31461 23.4294 7.58174C23.6862 11.3573 24.0208 15.1353 24.6806 18.8686C24.8597 19.8729 24.815 20.5511 23.6391 20.8913C22.7084 21.1612 21.8789 21.7549 20.967 22.1045C17.0295 23.6157 15.2009 26.5629 14.6048 30.6295C13.4101 38.6265 16.9824 44.1198 22.8521 48.2614C24.8126 49.6482 27.1619 50.0331 29.6101 49.4065C32.2375 48.7331 34.8625 48.0268 37.3273 46.9215C40.506 45.4972 42.9826 43.2398 44.8418 40.2456C48.3763 34.5553 46.9224 29.055 44.4011 23.5852C44.0076 22.731 43.8803 22.0787 44.2126 21.1941C45.6476 17.3528 46.8046 13.4106 48.3951 9.62089C48.5177 9.2736 48.5695 8.86296 48.824 8.65881Z" fill="black"/>
    <path d="M38.5338 32.3071C37.8622 29.2214 37.3014 26.2718 36.8843 23.2917C35.8876 15.9634 34.3064 8.74312 32.9185 1.48291C32.5792 -0.302805 32.5062 -0.185479 34.2334 0.3378C43.3879 3.11376 52.8064 4.94877 61.8666 8.06263C63.3111 8.55775 63.2804 8.51552 62.2554 9.63482C55.0048 17.5567 46.9036 24.6011 39.0616 31.9105C38.9603 32.0138 38.8283 32.0912 38.5338 32.3071Z" fill="black"/>
  </g>
  <defs>
    <clipPath id="clip0_2_55">
      <rect width="63" height="63" fill="white"/>
    </clipPath>
  </defs>
</svg>