<svg width="97" height="39" viewBox="0 0 97 39" fill="none" xmlns="http://www.w3.org/2000/svg">
<g clip-path="url(#clip0_8_1044)">
<path d="M55.8971 15.2428L53.6326 20.1649C53.362 20.739 53.0706 21.3045 52.8001 21.8913C52.6627 22.2121 52.517 22.2333 52.2298 22.0771C50.4675 21.1287 48.6998 20.1873 46.9264 19.253C46.5851 19.0715 46.5601 18.9154 46.7183 18.565C49.0536 13.4193 51.6387 8.40443 54.2737 3.4107C54.3195 3.31784 54.3736 3.225 54.4152 3.12369C54.6275 2.59603 54.9355 2.53695 55.4267 2.824C57.121 3.82021 58.732 4.93462 60.3221 6.10391C60.6052 6.31497 60.5719 6.47959 60.3929 6.72864C60.2139 6.97769 60.0682 7.32806 59.8559 7.57289C59.3522 8.18497 59.5229 8.71262 59.96 9.26138C60.9216 10.4813 61.9123 11.6717 62.9779 12.7987C64.4814 14.47 65.8906 16.2261 67.199 18.0585C67.4196 18.3582 67.4695 18.5059 67.0866 18.7254C65.3281 19.6918 63.6268 20.7617 61.9914 21.9293C61.6792 22.1615 61.5418 22.0475 61.3545 21.7773C59.7768 19.481 57.8411 17.4548 55.8971 15.2428Z" fill="black"/>
<path d="M44.5413 31.1232C44.5413 30.5069 44.5913 29.8863 44.5871 29.27C44.5871 28.907 44.7037 28.7846 45.0658 28.8142C47.0616 28.9345 49.0631 28.9133 51.056 28.7508C52.9042 28.6242 54.7483 28.5229 56.5924 28.3709C58.653 28.2063 60.7177 28.2865 62.7782 28.2189C65.0095 28.143 67.2407 28.1598 69.4719 28.1134C69.8882 28.1134 70.0505 28.2063 70.0713 28.6664C70.1546 30.5829 70.267 32.4993 70.396 34.4158C70.4293 34.9519 70.2504 35.0785 69.7258 35.0869C65.3258 35.146 60.9258 35.1545 56.53 35.3571C53.4246 35.5006 50.3275 35.8383 47.2096 35.8721C46.6019 35.8721 45.9899 35.8341 45.3822 35.8721C44.7744 35.9101 44.6121 35.623 44.6162 35.0911C44.6287 33.7741 44.4872 32.4487 44.5413 31.1232Z" fill="black"/>
<path d="M17.3169 35.5555C17.088 33.8206 16.8715 32.0898 16.68 30.3549C16.6426 30.0046 16.4802 29.9624 16.1639 29.975C15.2606 30.013 14.3531 30.0341 13.4498 30.0679C11.8513 30.1186 10.2528 30.165 8.65429 30.0679C8.40869 30.0679 8.21305 30.0679 8.20056 29.7429C8.13812 28.3583 8.06736 26.9779 7.97161 25.5976C7.94664 25.2936 8.07152 25.2008 8.38789 25.1755C10.7273 24.842 13.0668 24.4874 15.4104 24.1751C15.5392 24.1744 15.6635 24.1264 15.7601 24.04C16.243 24.0189 16.3678 23.8627 16.3096 23.4237C16.0806 21.693 15.86 19.958 15.6727 18.2231C15.6352 17.8769 15.4728 17.8306 15.1565 17.8432C14.2532 17.8854 13.3457 17.9065 12.4424 17.9361C10.8439 17.9909 9.24541 18.0332 7.64275 17.9361C7.40131 17.9361 7.22649 17.9361 7.19318 17.6068C7.13074 16.2265 7.0558 14.8419 6.96006 13.4615C6.93925 13.1576 7.06413 13.0647 7.37633 13.0394C9.71579 12.7059 12.0511 12.3472 14.3947 12.039C14.811 11.9841 14.836 11.849 14.811 11.5704C14.5096 9.79195 14.3218 7.99559 14.249 6.19257C14.249 5.88019 14.0908 5.79996 13.7786 5.84639L10.923 6.26852C8.66679 6.602 6.42307 7.01152 4.13773 7.18037C2.94719 7.2648 1.74416 7.26476 0.607737 7.67422C0.328834 7.77553 0.170648 7.86838 0.149834 8.17653C0.0319157 10.0146 0.0138479 11.8579 0.0957167 13.6979C0.228924 16.7626 0.51199 19.8187 0.928263 22.8664C0.933538 23.0341 0.979279 23.1979 1.06147 23.3435C1.06147 24.1877 1.06147 25.0109 1.10726 25.8424C1.24047 28.9071 1.52353 31.9632 1.9398 35.011C1.97727 35.2811 1.98976 35.5639 2.35608 35.699C3.26017 36.0908 4.23721 36.2794 5.22004 36.252C5.78797 36.2339 6.35645 36.2494 6.9226 36.2984V36.252C7.95495 36.2857 8.98316 36.3659 10.0155 36.3533C12.2426 36.3237 14.4696 36.2267 16.6967 36.2014C17.242 36.1676 17.3794 36.0156 17.3169 35.5555Z" fill="black"/>
<path d="M84.4286 27.4212C83.4253 27.3367 82.4221 27.3579 81.4189 27.3452C80.5481 27.3261 79.677 27.3726 78.813 27.4844C78.4592 27.5393 78.4675 27.5309 78.4217 27.1847C78.2011 25.416 78.0471 23.6389 77.7848 21.8744C77.7112 21.3628 77.675 20.8464 77.6766 20.3295C77.6766 18.8605 77.535 17.4042 77.4393 15.9394C77.406 15.4413 77.3894 14.939 77.381 14.4409C77.3704 14.2243 77.3872 14.0072 77.431 13.795C77.5297 13.3381 77.5896 12.8735 77.61 12.4062C77.6433 11.8996 77.6516 11.8955 78.1386 11.8406C79.479 11.6886 80.7862 11.3551 82.1141 11.1314C83.628 10.8708 85.1581 10.7185 86.6931 10.6755C87.9086 10.6418 89.1158 10.456 90.323 10.3294C90.7392 10.2872 90.8267 10.3293 90.8475 10.6966C90.9766 11.7706 91.16 12.8371 91.397 13.8921C91.5135 14.6139 91.5718 15.3441 91.655 16.0744C91.655 16.2264 91.5885 16.2728 91.4552 16.2939C90.4925 16.4896 89.5196 16.6305 88.5413 16.7161C86.8317 16.7421 85.1261 16.8931 83.4378 17.1678C83.238 17.2015 83.0923 17.2184 83.1339 17.4886C83.2963 18.4595 83.3129 19.4472 83.4337 20.4223C83.4753 20.7473 83.4836 20.7431 83.8499 20.7305C84.536 20.6713 85.2183 20.5741 85.8938 20.4392C87.1491 20.2606 88.4212 20.238 89.6819 20.3717C90.0982 20.4139 90.5145 20.4561 90.9599 20.5067C91.3096 20.5489 91.3512 20.5827 91.3762 20.9288C91.4428 21.6253 91.4927 22.3219 91.5426 23.0184C91.6176 24.0653 91.5801 25.129 91.7466 26.1632C91.7489 26.1786 91.7489 26.1942 91.7466 26.2096C91.7466 26.4798 91.8382 26.7964 91.7466 26.999C91.655 27.2016 91.2721 27.1173 91.0181 27.1384C90.1856 27.2059 89.378 27.2438 88.558 27.2987C88.2458 27.2987 87.9336 27.3325 87.6255 27.3662C86.5626 27.4625 85.4941 27.4809 84.4286 27.4212Z" fill="black"/>
<path d="M83.9831 17.0961C82.9508 17.0074 81.9017 17.0243 80.8735 17.0117C79.9724 16.9911 79.0709 17.0361 78.1761 17.1467C77.8098 17.1973 77.8139 17.1931 77.7598 16.8428C77.5267 15.0741 77.3435 13.2969 77.0855 11.5366C77.0086 11.024 76.971 10.506 76.9731 9.98748C76.9731 8.51849 76.819 7.05798 76.715 5.59743C76.6817 5.09933 76.665 4.59698 76.6525 4.09465C76.6435 3.87791 76.6616 3.66087 76.7066 3.44879C76.8076 2.99374 76.8676 2.53029 76.8857 2.06421C76.919 1.55766 76.9273 1.55351 77.4351 1.49863C78.8213 1.34667 80.1742 1.01734 81.5479 0.797839C83.1082 0.540752 84.684 0.391233 86.2643 0.350363C87.5131 0.320815 88.7619 0.135163 90.0107 0.0127468C90.427 -0.0252443 90.5311 0.0126932 90.5561 0.379941C90.6918 1.45574 90.8821 2.52375 91.1263 3.57967C91.2512 4.3015 91.3095 5.03174 91.4011 5.75779C91.4011 5.91398 91.3303 5.96042 91.193 5.9773C90.1956 6.17552 89.188 6.31645 88.175 6.39943C86.4075 6.42227 84.6438 6.5704 82.8966 6.84268C82.6843 6.87645 82.5345 6.89334 82.5803 7.1635C82.7468 8.13438 82.7718 9.12213 82.8966 10.0972C82.9383 10.4223 82.9466 10.418 83.3129 10.4054C84.0237 10.3476 84.7309 10.2519 85.4317 10.1184C86.732 9.94321 88.0479 9.9219 89.353 10.055L90.6726 10.1943C91.0348 10.2365 91.0889 10.2703 91.1139 10.6164C91.1846 11.3129 91.2387 12.0137 91.2887 12.7271C91.3678 13.7739 91.3345 14.8377 91.5093 15.8719C91.5074 15.8873 91.5074 15.9029 91.5093 15.9183C91.5093 16.1885 91.6051 16.505 91.5093 16.7077C91.4136 16.9103 91.0139 16.8259 90.7559 16.847C89.9233 16.9103 89.0575 16.9483 88.2083 16.999C87.8877 17.0201 87.563 17.0327 87.2425 17.0665C86.158 17.1519 85.069 17.1618 83.9831 17.0961Z" fill="black"/>
<path d="M42.0852 17.2944C42.0269 19.0462 41.9187 20.9922 41.952 22.9424C41.952 23.5925 41.9978 24.2383 42.0103 24.8884C42.0227 25.5385 42.0103 26.1885 41.977 26.8344C41.9353 28.9787 41.5607 31.1063 41.5982 33.2507C41.5982 34.095 41.7105 34.9392 41.7688 35.7835C41.7688 35.9185 41.7688 36.0578 41.7688 36.2056C41.7688 36.6066 41.7189 36.653 41.3276 36.6277C39.3877 36.5855 37.4438 36.6277 35.4998 36.5095C35.0835 36.4799 34.6464 36.4757 34.2218 36.4546C33.7972 36.4335 33.6557 36.3575 33.5932 35.8721C33.5599 35.6188 33.5599 35.3613 33.5516 35.108C33.5412 34.9506 33.5412 34.7927 33.5516 34.6353C33.8263 32.398 33.6973 30.1565 33.6182 27.915C33.5349 25.4751 33.3768 23.0353 33.4767 20.5955C33.5558 18.5904 33.5891 16.5811 33.5932 14.5717C33.5932 12.9381 33.5266 11.3087 33.4392 9.67507C33.4199 9.40067 33.3667 9.12985 33.281 8.86885C33.1187 8.3412 32.9688 7.81354 32.8148 7.28589C32.7621 7.11606 32.7442 6.93709 32.7621 6.75998C32.78 6.58288 32.8333 6.4113 32.9189 6.25583C33.0521 6.02366 32.9189 5.64799 33.2311 5.53824C33.4762 5.47863 33.7296 5.46155 33.9803 5.48764C36.1949 5.48764 38.4012 5.34827 40.6158 5.31873C41.4941 5.31873 41.5149 5.31873 41.6606 6.16297C41.7681 6.98203 41.8321 7.8064 41.8521 8.63244C42.056 11.4691 42.156 14.2805 42.0852 17.2944Z" fill="black"/>
<path d="M24.71 30.3549C24.71 28.5018 24.71 26.8091 24.71 25.1164C24.71 24.555 24.71 24.5212 24.1605 24.5719C23.2156 24.6521 22.2665 24.6817 21.3257 24.8252C20.6347 24.9265 19.9354 24.956 19.2444 24.9898C18.8281 24.9898 18.7989 24.9897 18.7781 24.5212C18.7365 23.7135 18.7032 22.9073 18.6782 22.1024C18.6283 20.4899 18.5658 18.8816 18.6408 17.2649C18.6408 16.9356 18.774 16.8428 19.0779 16.7922C19.7189 16.7246 20.3558 16.6866 20.9969 16.6824C21.9668 16.6824 22.9367 16.6317 23.9108 16.6275C24.223 16.6275 24.3271 16.5051 24.3021 16.2054C24.2813 15.3611 24.198 14.5549 24.1689 13.7275C24.0939 11.6802 24.2105 9.63715 24.2105 7.58985C24.2105 7.10018 24.3146 6.61475 24.3604 6.12509C24.3853 5.8676 24.4769 5.74091 24.7766 5.75779C26.772 5.85066 28.7687 5.90842 30.7668 5.93093C31.1831 5.93093 31.1831 5.952 31.2164 6.42478C31.283 8.33278 31.4079 10.2239 31.3329 12.1488C31.3204 13.7422 31.4164 15.3345 31.6202 16.9145C31.6535 17.4436 31.641 17.9748 31.5827 18.5017C31.514 19.7601 31.514 21.0214 31.5827 22.2798L31.7575 28.6116C31.7783 29.3799 31.8033 30.1439 31.8283 30.9122C31.8568 31.5806 31.8457 32.2502 31.795 32.9173C31.7201 33.7615 31.6618 34.6437 31.6618 35.5133C31.6618 36.0409 31.6285 36.0959 31.104 36.1085C30.0175 36.1339 28.9269 36.1465 27.8404 36.1085C27.0453 36.0874 26.2502 36.0578 25.4552 36.0536C24.8266 36.0536 24.8016 36.024 24.7808 35.3951C24.71 33.6601 24.6851 31.9295 24.71 30.3549Z" fill="black"/>
<path d="M80.8153 38.7214C79.2084 38.6201 77.4851 38.4892 75.7659 38.4765C75.4745 38.4765 75.1789 38.5061 74.8875 38.5357C74.5961 38.5652 74.4712 38.4639 74.413 38.1515C74.3505 37.5605 74.2506 36.9738 74.1715 36.3871C73.9592 34.821 73.9009 33.2423 73.7552 31.672C73.7552 31.5791 73.7552 31.4862 73.7552 31.3933C73.7552 31.0429 73.801 30.9712 74.1424 30.9375C74.4722 30.9121 74.8033 30.9121 75.1331 30.9375C77.1618 31.1007 79.1987 31.1331 81.2315 31.0346C82.2556 30.9839 83.2837 31.0598 84.3119 31.0683C86.6014 31.0894 88.8909 31.1274 91.1846 31.1021C92.7245 31.1281 94.2645 31.0633 95.7969 30.9079H95.9593C96.5878 30.9079 96.5962 30.8868 96.6669 31.5031C96.8085 32.7399 96.8376 33.9852 96.9625 35.222C97.0605 36.2573 97.0312 37.3009 96.8751 38.3289C96.8085 38.7932 96.8085 38.8269 96.3297 38.8269C94.5356 38.8269 92.7415 38.9578 90.9473 38.9957C89.3155 39.0295 87.6879 38.8944 86.0561 38.9957C85.1943 39.0011 84.3328 38.9602 83.4752 38.8733C82.6135 38.8058 81.7685 38.8649 80.8153 38.7214Z" fill="black"/>
</g>
<defs>
<clipPath id="clip0_8_1044">
<rect width="97" height="39" fill="white"/>
</clipPath>
</defs>
</svg>
