<svg xmlns="http://www.w3.org/2000/svg" width="301" height="85" viewBox="0 0 301 85" fill="none">
  <path d="M153 0.032534C173.079 0.032534 193.157 0.00812856 213.236 0.032534C219.501 0.032534 225.373 1.83038 231.372 3.01404C247.239 6.13794 262.549 10.6082 277.829 15.2453C282.613 16.6974 285.815 18.6131 288.285 22.2048C292.507 28.355 297.28 34.2571 300.428 40.875C300.931 41.7938 301.104 42.8086 300.93 43.8036C300.061 48.217 299.238 52.6384 297.878 56.9785C297.627 57.792 297.376 58.4997 296.447 59.0326C282.588 67.1352 268.232 74.5626 252.686 80.3955C248.379 82.0225 243.992 82.958 239.133 82.7221C227.748 82.173 216.423 83.7431 205.044 83.6251C191.315 83.4868 177.611 83.8367 163.933 84.8048C154.425 85.4759 145.089 84.0441 135.677 83.495C119.84 82.5717 104.053 81.3514 88.1305 81.0545C73.5233 80.786 58.8608 80.6477 44.3489 78.8377C42.6038 78.6943 40.9457 78.1495 39.5702 77.2675C31.2375 71.5974 22.3176 66.5495 13.6385 61.2454C8.61887 58.1826 4.78374 54.2613 0.742903 50.4703C0.130502 49.8968 0.0904375 49.2501 0.0854179 48.5667C0.0552998 42.8071 0.0853345 37.0433 0 31.2837C0.011725 30.4029 0.453963 29.5618 1.2298 28.9448C4.69569 25.8163 8.36535 22.8401 12.223 20.0287C18.4976 15.3388 25.1436 11.0028 31.7394 6.60574C32.9286 5.75396 34.41 5.21617 35.986 5.06412C51.9386 3.65674 67.9212 2.38763 83.8135 0.61824C93.4513 -0.455598 103.019 0.081319 112.606 0.260292C126.074 0.536887 139.537 0.654872 153 0.032534Z" fill="#D9D9D9"/>
</svg>