<svg width="274" height="137" viewBox="0 0 274 137" fill="none" xmlns="http://www.w3.org/2000/svg">
<g clip-path="url(#clip0_8_1017)">
<path d="M153.16 13.6087C153.16 9.34629 153.16 5.07813 153.16 0.815732C153.16 0.172351 153.373 0.051784 153.966 0.0230616C156.765 -0.0918279 159.546 0.206801 162.339 0.224034C162.914 0.224034 162.966 0.465319 162.96 0.959344C162.96 3.71095 162.96 6.46837 162.96 9.21997C162.96 9.90931 163.168 10.1448 163.853 10.1908C165.199 10.2321 166.546 10.1783 167.884 10.0299C168.557 9.97245 168.816 10.0873 168.839 10.8398C168.913 13.4921 169.13 16.1384 169.49 18.7672C169.594 19.5083 169.329 19.7093 168.655 19.7265C167.141 19.7667 165.632 19.8874 164.118 19.8816C163.421 19.8816 163.179 20.031 163.231 20.772C163.444 23.8511 163.565 26.9417 163.807 30.0207C163.864 30.8307 163.726 31.1179 162.834 31.1293C160.24 31.1149 157.647 31.2357 155.066 31.4912C154.3 31.5831 154.116 31.3592 154.058 30.6181C153.569 24.9541 153.488 19.2785 153.16 13.6087Z" fill="black"/>
<path d="M138.408 38.7811C138.408 37.5403 138.408 36.2995 138.408 35.0587C138.408 34.4842 138.586 34.3118 139.156 34.2946C141.609 34.2257 144.068 34.1395 146.521 33.9901C147.465 33.9327 147.298 34.5071 147.218 35.0127C146.884 37.1726 146.838 39.3555 146.694 41.5327C146.636 42.3944 146.947 42.5264 147.719 42.4747C152.147 42.1703 156.58 41.9405 161.003 41.6131C161.941 41.5441 162.183 41.8198 162.269 42.7217C162.494 45.1574 162.719 47.5987 163.185 50.0114C163.317 50.7065 163.185 50.9421 162.39 51.0742C156.16 52.0852 149.849 51.9015 143.59 52.4415C142.519 52.5334 141.442 52.6482 140.383 52.8205C139.634 52.9412 139.266 52.7573 139.231 51.9416C139.024 47.5528 138.327 43.1871 138.408 38.7811Z" fill="black"/>
<path d="M134.844 28.7682C133.189 28.7643 131.561 28.352 130.105 27.5677C129.54 27.2728 129.056 26.8448 128.694 26.3211C128.068 25.4096 127.406 24.5212 126.707 23.6557C124.444 20.8639 123.598 17.7963 124.721 14.2807C124.95 13.4742 125.11 12.6497 125.199 11.8163C125.313 10.3673 125.908 8.99754 126.889 7.92304C127.87 6.84854 129.182 6.13052 130.617 5.88232C132.615 5.43999 134.602 4.92294 136.577 4.39445C136.926 4.28194 137.296 4.24883 137.66 4.29754C138.023 4.34624 138.371 4.47552 138.679 4.67592C141.022 6.17523 143.199 7.82962 144.247 10.5468C145.899 14.8206 146.083 19.1635 144.212 23.3455C142.916 26.2522 140.279 27.74 137.245 28.5155C136.459 28.7059 135.652 28.7908 134.844 28.7682ZM133.283 15.4698C133.326 16.4721 133.589 17.4527 134.055 18.3421C134.631 19.2841 135.396 19.2439 135.995 18.3421C136.807 17.1012 136.404 15.8719 135.869 14.7345C135.756 14.451 135.541 14.2199 135.266 14.087C134.991 13.954 134.676 13.9289 134.383 14.0164C134.053 14.0828 133.759 14.2673 133.557 14.5351C133.354 14.8028 133.257 15.1353 133.283 15.4698Z" fill="black"/>
<path d="M221.083 31.698C221.198 35.2538 221.296 38.8039 221.434 42.354C221.498 43.9165 221.175 45.4502 221.21 47.0012C221.21 47.6159 220.812 47.6159 220.38 47.6389C217.893 47.794 215.405 47.9318 212.929 48.1501C212.152 48.2133 211.985 47.9032 211.91 47.2541C211.64 44.8874 211.628 42.5033 211.536 40.1251C211.144 30.1986 211.26 20.2608 210.839 10.3286C210.782 8.95564 210.891 7.57125 210.908 6.19258C210.908 5.74451 211.035 5.50323 211.553 5.46877C214.104 5.31941 216.655 5.10108 219.212 4.99768C220.306 4.95173 220.582 5.39985 220.599 6.34769C220.645 9.21993 220.68 12.0921 220.807 14.9357C221.054 20.502 220.985 26.0971 221.083 31.698Z" fill="black"/>
<path d="M190.271 3.97524C194.216 3.91205 196.525 6.39935 198.603 9.22563C199.089 9.93642 199.525 10.6792 199.91 11.4488C200.289 12.0887 200.529 12.8003 200.617 13.5382C200.704 14.2761 200.636 15.024 200.417 15.7342C199.703 18.1155 199.189 20.5518 198.88 23.0181C198.83 23.602 198.649 24.1673 198.35 24.6716C198.051 25.1759 197.641 25.6064 197.152 25.9306C195.695 26.9187 194.336 28.0504 192.955 29.1418C192.797 29.2997 192.602 29.4155 192.388 29.4787C192.173 29.5419 191.947 29.5505 191.728 29.5037C189.141 28.8718 186.553 28.2514 183.966 27.6425C183.491 27.559 183.053 27.3337 182.71 26.9962C182.366 26.6587 182.134 26.2249 182.043 25.7525C181.214 22.6964 179.872 19.7956 179.308 16.6476C179.043 15.154 179.527 13.8385 179.884 12.4886C180.276 10.8788 180.788 9.30041 181.415 7.76665C182.1 6.11798 183.719 5.39981 185.227 4.77941C186.736 4.15901 188.578 4.12459 190.271 3.97524ZM191.123 16.8257C191.262 15.9755 190.83 15.2976 190.548 14.5623C190.317 14.028 190.098 13.6776 189.454 13.7063C189.192 13.7146 188.942 13.8149 188.747 13.9894C188.552 14.1638 188.425 14.4013 188.388 14.66C187.964 16.3084 188.156 18.0544 188.93 19.5714C189.012 19.7674 189.157 19.9305 189.343 20.0345C189.529 20.1386 189.744 20.1777 189.955 20.1459C190.473 20.0942 190.622 19.7036 190.703 19.2842C190.841 18.4513 190.974 17.6357 191.123 16.8257Z" fill="black"/>
<path d="M186.644 44.9103C183.875 44.7246 181.118 44.3871 178.386 43.8993C177.839 43.7787 177.638 43.5776 177.632 43.0261C177.598 40.7858 177.563 38.5455 177.465 36.3109C177.425 35.4607 177.707 35.162 178.559 35.162C182.221 35.162 185.884 35.2653 189.54 34.9839C191.089 34.8632 198.177 34.7713 199.743 34.5933C201.02 34.5247 202.301 34.6154 203.555 34.8632C203.999 34.9207 204.085 35.1849 204.131 35.5756C204.304 38.0783 204.604 40.5707 205.029 43.0434C205.139 43.6695 204.891 43.8361 204.361 43.8993C200.331 44.4278 190.755 44.8356 186.644 44.9103Z" fill="black"/>
<path d="M100.853 28.5904C100.853 29.9231 100.773 31.2616 100.802 32.6115C100.802 33.2721 100.617 33.519 99.9379 33.5018C98.2853 33.4558 96.627 33.5019 94.9744 33.4502C94.1164 33.4215 93.9092 33.7029 93.9898 34.5301C94.2604 37.4023 94.4331 40.2747 94.7095 43.1124C94.7844 43.8994 94.4619 44.1464 93.7997 44.2613C91.2892 44.7439 88.7787 45.2091 86.2796 45.7433C85.4274 45.9271 85.2777 45.571 85.2259 44.8644C84.938 40.5828 84.5944 36.309 84.1952 32.0428C83.6194 25.7813 83.1472 19.5026 82.5772 13.2354C82.4678 12.0865 82.8766 11.7877 83.9822 11.7303C86.2163 11.6097 88.4505 11.357 90.6731 11.0697C91.531 10.9548 91.7786 11.2535 91.8823 12.029C92.3429 15.4757 92.6424 18.9224 92.9072 22.3691C93.0282 24.012 93.0282 23.9948 94.698 23.9775C96.5118 23.9775 98.3256 23.9775 100.139 23.9775C100.715 23.9775 100.871 24.1039 100.859 24.7071C100.83 25.9996 100.917 27.2979 100.957 28.5961L100.853 28.5904Z" fill="black"/>
<path d="M104.775 10.2253C105.194 10.2358 105.613 10.2184 106.03 10.1735C106.761 10.0414 106.963 10.3573 107.049 11.0467C108.27 20.6476 109.506 30.2427 110.757 39.8322C110.89 40.8892 110.97 41.9461 111.114 42.9974C111.189 43.5718 111.114 43.8648 110.475 43.9969C107.896 44.5369 105.356 45.2665 102.708 45.4675C102.005 45.525 101.752 45.3412 101.671 44.6116C100.738 36.3281 99.7306 28.0503 98.5732 19.7898C98.2047 17.1818 97.8707 14.568 97.5022 11.96C97.4158 11.3855 97.3813 10.9777 98.1529 10.9031C100.468 10.6963 102.777 10.4435 104.775 10.2253Z" fill="black"/>
<path d="M53.5735 25.517C53.752 24.1268 53.9593 16.6705 54.0975 15.2803C54.1666 14.6484 54.4027 14.4705 55.0418 14.5336C57.7942 14.8094 60.5524 15.0677 63.3105 15.2573C64.3757 15.3262 64.1051 15.9467 63.9439 16.4982C63.2587 18.8649 62.8901 27.3667 62.4122 29.7794C62.2279 30.7329 62.5562 30.9283 63.4256 30.98C68.4122 31.273 73.3929 31.6578 78.3967 31.9335C79.4505 31.991 79.6866 32.33 79.6463 33.3468C79.5484 36.1041 79.4447 38.8672 79.6117 41.6245C79.6635 42.423 79.4908 42.6642 78.5752 42.6929C71.4697 42.9285 64.4448 41.8084 57.3796 41.5097C56.1704 41.458 54.9555 41.435 53.7462 41.4752C52.8883 41.5039 52.5025 41.2454 52.5946 40.3263C52.9919 35.3975 52.848 30.4285 53.5735 25.517Z" fill="black"/>
<path d="M241.904 102.275C241.904 99.276 242.06 96.6335 242.336 94.0025C242.411 93.3419 242.273 93.1064 241.553 93.1869C239.664 93.3994 234.874 93.1868 232.985 93.4281C232.38 93.5143 232.092 93.3075 232.046 92.6297C231.843 89.631 231.749 86.6304 231.764 83.628C231.764 82.9903 231.943 82.7205 232.616 82.7492C237.62 82.9732 245.52 82.7492 250.513 83.2834C250.887 83.2965 251.254 83.3859 251.592 83.5461C251.93 83.7063 252.232 83.934 252.478 84.2149C252.725 84.4959 252.911 84.8241 253.026 85.1797C253.14 85.5352 253.18 85.9104 253.144 86.282C253.006 92.6411 252.194 98.9657 252.125 105.331C252.125 106.192 252.079 107.054 252.044 107.904C251.992 109.191 251.307 109.846 250.029 109.834C247.518 109.806 245.008 109.748 242.503 109.76C241.737 109.76 241.524 109.524 241.57 108.777C241.714 106.491 241.806 104.205 241.904 102.275Z" fill="black"/>
<path d="M206.929 112.442C205.651 112.557 204.586 112.632 203.532 112.747C201.413 112.982 199.317 113.413 197.198 113.591C196.542 113.649 196.277 113.522 196.179 112.833C195.868 110.673 195.442 108.53 195.252 106.347C195.2 105.773 195.396 105.618 195.903 105.566C197.532 105.382 199.173 105.245 200.786 104.963C204.125 104.389 207.505 104.291 210.862 103.906C211.38 103.849 211.91 103.906 212.428 103.843C212.782 103.802 213.14 103.864 213.459 104.022C213.778 104.18 214.044 104.427 214.225 104.733C215.469 106.508 216.747 108.255 217.824 110.139C217.947 110.29 218.01 110.481 217.999 110.676C217.989 110.87 217.905 111.053 217.766 111.19C216.171 113.103 214.968 115.297 213.465 117.273C213.275 117.526 213.275 117.687 213.511 117.894C213.966 118.284 214.375 118.727 214.847 119.094C216.655 120.613 218.384 122.221 220.029 123.914C220.3 124.173 220.352 124.31 220.064 124.615C218.578 126.195 217.11 127.786 215.676 129.406C215.279 129.854 215.008 129.676 214.668 129.406C212.671 127.925 210.749 126.345 208.91 124.672C208.438 124.242 208.248 124.333 207.908 124.781C206.757 126.281 205.553 127.74 204.396 129.233C204.357 129.316 204.299 129.389 204.227 129.445C204.155 129.501 204.07 129.539 203.98 129.556C203.89 129.573 203.797 129.568 203.709 129.542C203.621 129.516 203.541 129.469 203.475 129.406C201.597 128.257 199.703 127.171 197.82 126.051C196.985 125.557 196.968 125.528 197.578 124.73C198.557 123.449 199.559 122.174 200.584 120.927C202.778 118.273 204.643 115.361 206.929 112.442Z" fill="black"/>
<path d="M190.726 81.5256L187.196 81.6634C185.624 81.7266 184.058 81.8071 182.486 81.7324C182.06 81.7324 181.87 81.5716 181.853 81.1177C181.768 78.82 181.751 76.5068 181.801 74.1784C181.801 73.5407 182.296 73.6442 182.659 73.6384C183.811 73.6097 184.962 73.6384 186.114 73.6384C187.455 73.6384 187.484 73.6384 187.404 72.3172C187.306 70.726 187.219 69.1404 187.242 67.5492C187.242 67.0552 187.358 66.8484 187.899 66.8254C189.338 66.7565 190.778 66.6762 192.217 66.5038C193.265 66.3775 194.152 66.8887 195.096 67.0438C195.436 67.0955 195.356 67.4172 195.344 67.6527C195.324 69.3426 195.399 71.0321 195.569 72.7135C195.609 73.288 195.857 73.288 196.265 73.288C197.56 73.2018 198.858 73.2018 200.152 73.288C200.235 73.2741 200.321 73.277 200.403 73.2965C200.485 73.316 200.562 73.3516 200.631 73.4014C200.699 73.4512 200.756 73.5141 200.8 73.5864C200.843 73.6587 200.872 73.7389 200.883 73.8223C201.528 75.9592 202.196 78.0904 202.916 80.1986C203.047 80.4459 203.083 80.7322 203.017 81.004C202.951 81.2758 202.788 81.5143 202.559 81.6749C201.269 82.7319 200.002 83.8234 198.615 85.0068C201.396 86.7301 203.572 88.7291 206.181 90.102C206.975 90.5214 206.964 90.5444 206.417 91.2969C205.081 93.1294 203.538 94.7723 202.11 96.5473C201.833 96.8977 201.615 96.8347 201.292 96.6508C199.728 95.7248 198.226 94.6981 196.795 93.5775C195.609 92.6699 194.308 91.9345 193.07 91.1016C192.69 90.8431 192.494 91.0269 192.24 91.2452C190.766 92.5166 189.29 93.7805 187.812 95.0366C187.576 95.2377 187.363 95.5421 187.058 95.0711C185.786 93.1237 183.926 91.7393 182.25 90.1883C181.807 89.7804 181.674 89.5793 182.25 89.1025C185.077 86.7243 187.887 84.2944 190.726 81.5256Z" fill="black"/>
<path d="M224.918 84.5127C223.668 84.4667 222.419 84.4495 221.181 84.3518C220.547 84.3059 220.432 84.5357 220.45 85.0986C220.553 87.8847 220.622 90.6651 220.697 93.4454C220.732 94.8241 220.732 94.8643 219.396 95.0309C217.524 95.2664 215.642 95.456 213.759 95.6053C212.728 95.6915 212.607 95.5652 212.607 94.5197C212.555 93.0548 212.526 91.5841 212.48 90.1193C212.285 84.0531 212.359 77.987 212.411 71.9208C212.411 71.8232 212.411 71.7198 212.411 71.6221C212.319 70.1286 212.319 70.1573 213.787 70.0539C215.549 69.9275 217.306 69.7379 219.062 69.5771C219.361 69.5771 219.638 69.5772 219.96 69.5369C220.357 69.5025 220.467 69.6805 220.473 70.0596C220.473 71.8749 220.536 73.6901 220.53 75.5054C220.53 75.9879 220.594 76.2005 221.152 76.2235C223.743 76.3326 226.334 76.4648 228.931 76.4131C229.329 76.4131 229.398 76.5623 229.409 76.8783C229.517 79.2833 229.63 81.6922 229.749 84.1049C229.749 84.6506 229.329 84.5357 229.058 84.5299C227.688 84.5299 226.317 84.4323 224.952 84.3806L224.918 84.5127Z" fill="black"/>
<path d="M28.8597 107.669C31.5399 107.731 34.1962 108.188 36.7425 109.024C38.66 109.639 39.7598 111.138 40.5659 112.741C41.8598 115.173 42.9109 117.727 43.7041 120.364C44.0013 121.21 44.0513 122.122 43.8481 122.995C43.2377 125.163 42.6312 127.33 42.0285 129.498C41.548 131.16 40.5523 132.628 39.184 133.691C37.6685 134.989 35.8878 135.943 33.9657 136.486C32.0437 137.028 30.0262 137.147 28.0535 136.833C25.8079 136.506 24.3108 134.823 22.6236 133.553C20.2858 131.83 18.5008 129.475 16.9001 127.056C16.0319 125.675 15.7097 124.02 15.996 122.415C16.2552 120.645 16.7216 118.905 16.9173 117.136C17.3953 112.919 22.2378 107.945 27.4374 107.738L28.8597 107.669ZM26.1994 121.599C26.178 122.237 26.2656 122.874 26.4585 123.483C27.0344 125.431 29.5967 127.022 31.2551 126.47C32.2007 126.094 32.9712 125.379 33.4155 124.465C33.8597 123.551 33.9455 122.504 33.6562 121.53C32.5046 118.313 31.7675 117.813 28.6063 118.015C28.389 118.014 28.1741 118.059 27.9756 118.147C27.7771 118.235 27.5995 118.364 27.4547 118.526C26.6658 119.428 26.044 120.404 26.1994 121.599Z" fill="black"/>
<path d="M41.2281 99.9252C39.8289 99.9252 38.4297 99.8964 37.0305 99.9252C36.3568 99.9252 36.1149 99.793 36.0919 99.052C35.8097 91.0097 35.1476 82.9675 34.5142 74.9597C34.4336 73.9831 34.756 73.0468 34.6581 72.0875C34.6121 71.6566 34.9806 71.6911 35.2339 71.6911C38.2109 71.6911 41.1878 71.6911 44.1648 71.6394C44.7694 71.6394 44.7406 71.9783 44.7406 72.4034C44.9249 75.1148 45.1494 77.8262 45.3164 80.5376C45.3567 81.2154 45.5985 81.3763 46.2435 81.2901C47.8385 81.0776 49.4507 80.9455 51.0457 80.7157C51.7482 80.618 52.0534 80.7788 52.1973 81.5313C52.6983 84.4036 53.0841 87.3275 53.4987 90.2342C53.5966 90.912 53.2281 90.9235 52.7789 90.9695C51.0515 91.1418 49.2837 91.3774 47.5333 91.4808C46.4507 91.5383 46.0938 91.9001 46.1974 93.026C46.3817 95.0194 46.3586 97.0471 46.4623 99.029C46.5026 99.8217 46.2147 100.08 45.4028 100.04C44.0093 99.9653 42.6101 100.04 41.2109 100.04L41.2281 99.9252Z" fill="black"/>
<path d="M25.2781 79.4632C25.4508 82.3814 25.6351 85.2996 25.7906 88.2178C25.9115 90.4294 25.9115 92.6411 26.1073 94.8412C26.2627 96.5646 25.9864 98.288 26.1534 99.9769C26.1937 100.408 26.0267 100.551 25.6351 100.637C22.2839 101.212 18.9614 101.884 15.5411 102.033C12.0114 102.194 11.9423 102.573 8.40106 102.671C6.77046 102.742 5.13799 102.582 3.55274 102.194C3.33876 102.161 3.14302 102.055 2.99909 101.893C2.85515 101.732 2.77199 101.525 2.76386 101.309C2.39534 98.7704 1.48557 96.3406 1.22646 93.7786C1.05371 92.0552 0.967344 90.3663 0.834908 88.6602C0.67368 86.5749 0.472137 84.4897 0.3397 82.3987C0.195747 80.1699 0.1209 77.9353 0.0057373 75.7007C0.0057373 75.2584 0.138174 75.0802 0.581549 75.0113C2.44718 74.747 4.33008 74.747 6.20722 74.5977C6.84283 74.5779 7.47702 74.5261 8.1074 74.4426C8.72351 74.3334 8.82717 74.6265 8.83869 75.1205C8.87899 76.6658 8.96537 78.2109 8.96537 79.7562C8.96537 80.3996 9.19568 80.5261 9.78301 80.5548C12.5872 80.6754 11.9078 80.302 14.6947 80.1124C15.1611 80.078 15.6275 79.9976 16.0997 79.9918C16.5718 79.9861 16.7561 79.7276 16.6755 79.2623C16.4424 77.821 16.2982 76.3668 16.2436 74.9079C16.1918 74.2243 16.3012 73.8682 17.1131 73.759C19.5833 73.4718 22.0823 73.4315 24.5353 73.0065C24.9614 72.9318 25.1111 73.1157 25.1111 73.4948C25.0305 75.4996 25.4681 77.4642 25.2781 79.4632ZM10.9749 93.7728C14.3607 93.5201 13.9289 93.2846 16.9519 93.0835C17.4356 93.0548 17.4701 92.8479 17.4471 92.4573C17.3837 91.4693 17.3031 90.4755 17.3319 89.4875C17.3319 88.8096 17.1131 88.7348 16.52 88.7865C13.3876 89.068 13.7158 89.4701 10.5661 89.361C9.93273 89.361 9.88666 89.6022 9.95 90.0848C10.1223 90.9758 10.2301 91.8783 10.2725 92.7848C10.2667 93.6177 10.5546 93.882 10.9749 93.7728Z" fill="black"/>
<path d="M145.939 134.243C142.337 134.302 138.734 134.152 135.149 133.795C134.654 133.749 134.464 133.622 134.4 133.105C133.964 130.038 133.703 126.948 133.617 123.851C133.617 120.657 133.888 121.553 133.617 118.399C133.421 116.297 133.226 116.596 135.27 116.4C137.671 116.176 140.089 116.303 142.49 116.107C143.066 116.061 143.394 116.17 143.302 116.831C142.888 119.772 142.934 118.589 143.101 121.496C143.147 122.363 143.181 123.219 143.193 124.098C143.193 124.563 143.331 124.758 143.838 124.758C147.408 124.758 150.972 124.594 154.531 124.264L154.876 124.219C156.264 124.109 156.333 124.172 156.402 125.568C156.523 127.906 156.632 130.25 156.782 132.588C156.828 133.249 156.707 133.553 155.941 133.634C152.463 133.996 149.009 134.07 145.939 134.243Z" fill="black"/>
<path d="M146.907 95.5938C150.811 95.6743 158.912 95.2262 162.92 95.3641C163.859 95.3928 164.164 95.726 164.291 96.6681C164.63 99.1268 164.676 101.597 164.809 104.067C164.809 104.532 164.642 104.733 164.233 104.779C163.697 104.837 163.162 104.917 162.621 104.94C160.467 105.015 154.202 105.095 152.043 105.118C151.467 105.118 151.41 105.388 151.467 105.882C151.594 108.117 151.675 110.351 151.818 112.58C151.865 113.27 151.675 113.488 151.001 113.528C147.938 113.723 144.88 113.965 141.822 114.223C141.126 114.281 140.849 114.166 140.832 113.31C140.78 110.84 140.59 108.37 140.498 105.899C140.498 105.262 140.25 105.107 139.686 105.124C138.068 105.164 128.233 105.124 126.615 105.164C126.097 105.164 125.849 105.032 125.838 104.423C125.792 101.769 125.717 99.1171 125.613 96.467C125.613 95.8926 125.918 95.9443 126.258 95.9386C130.358 95.8237 142.675 95.7087 146.907 95.5938Z" fill="black"/>
<path d="M273.96 90.9121C273.885 93.118 273.752 95.5708 273.793 98.0295C273.793 98.8509 273.85 99.6667 273.868 100.482C273.885 101.298 273.839 102.12 273.822 102.935C273.77 105.641 273.298 108.318 273.338 111.024C273.338 112.086 273.482 113.149 273.557 114.212C273.557 114.384 273.557 114.562 273.557 114.734C273.557 115.234 273.493 115.309 272.981 115.309C270.493 115.257 268.006 115.309 265.495 115.16C264.948 115.119 264.401 115.114 263.854 115.085C263.307 115.056 263.129 114.964 263.048 114.355C263.014 114.035 262.996 113.713 262.996 113.39C262.98 113.199 262.98 113.007 262.996 112.816C263.244 110 263.273 107.169 263.083 104.348C262.973 101.275 262.772 98.2018 262.893 95.1227C262.996 92.5952 263.042 90.0676 263.048 87.5343C263.048 85.4778 262.962 83.4213 262.847 81.3647C262.825 81.0165 262.757 80.6726 262.645 80.3422C262.438 79.6816 262.248 79.0152 262.069 78.3489C262 78.1361 261.977 77.9112 261.999 77.6888C262.022 77.4663 262.091 77.2509 262.202 77.0564C262.369 76.7577 262.202 76.2866 262.599 76.1487C262.913 76.0723 263.239 76.051 263.561 76.0856C266.394 76.0856 269.227 75.9075 272.06 75.873C273.211 75.873 273.211 75.8731 273.395 76.9645C273.536 77.997 273.618 79.0364 273.643 80.078C273.96 83.5706 274.063 87.115 273.96 90.9121Z" fill="black"/>
<path d="M116.101 74.2704C117.782 74.2704 117.782 74.2704 117.828 76.1086C117.961 79.314 117.633 82.5252 117.696 85.7421C117.759 89.0681 118.076 92.354 118.151 95.6743C118.243 99.4427 118.387 103.205 118.514 106.974C118.625 110.256 118.677 113.541 118.669 116.831C118.669 117.716 118.473 118.02 117.811 118.055C115.22 118.21 112.629 118.422 110.043 118.675C109.37 118.744 109.226 118.474 109.231 117.555C109.289 112.069 109.047 106.606 108.903 101.137C108.702 93.6693 107.93 86.282 108.42 78.7797C108.489 77.6883 108.42 76.5853 108.42 75.4881C108.42 74.7414 108.54 74.46 109.151 74.4197C111.581 74.2646 114.005 74.5404 116.101 74.2704Z" fill="black"/>
<path d="M91.5828 104.354C91.7383 94.8298 91.7383 85.2997 92.0896 75.7753C92.1184 75.0228 92.5617 75.0056 93.0454 74.9769C94.4446 74.8965 95.8381 74.8448 97.2373 74.7931C98.4292 74.7471 99.6269 74.7529 100.813 74.6609C101.516 74.6035 101.734 74.9252 101.688 75.5054C101.383 79.5954 101.458 83.6969 101.291 87.787C101.222 89.5103 101.245 91.2739 101.199 93.0145C101.199 93.5028 101.366 93.5889 101.815 93.5545C104.487 93.2615 107.176 93.6119 109.848 93.273C110.337 93.2098 110.498 93.3764 110.51 93.8474C110.55 96.2256 110.769 98.6039 110.326 100.971C110.326 101.057 110.326 101.143 110.326 101.235C110.205 102.815 110.205 102.803 108.598 102.832C106.295 102.878 104.055 102.953 101.78 102.993C101.343 102.993 101.055 103.039 101.118 103.607C101.412 106.095 101.118 108.599 101.256 111.075C101.389 113.16 101.481 115.246 101.619 117.331C101.66 117.905 101.498 118.089 100.888 118.175C98.2565 118.554 95.602 118.543 92.9706 118.824C92.3256 118.893 92.1875 118.635 92.1471 118.055C91.7901 113.528 91.4792 108.95 91.5828 104.354Z" fill="black"/>
<path d="M69.0975 119.278C68.1439 119.207 67.2123 118.957 66.3508 118.543C62.9478 116.659 60.466 113.855 58.3874 110.644C57.8461 109.811 58.111 108.921 58.2434 108.105C58.6465 105.583 59.159 103.085 59.6369 100.58C59.6998 100.263 59.8809 99.9819 60.1436 99.7931C63.1033 97.5585 66.1723 95.5249 69.7942 94.5082C70.9209 94.1794 72.117 94.1694 73.2491 94.4794C75.1699 94.9526 77.0029 95.7283 78.679 96.7772C79.1091 97.0285 79.4418 97.417 79.6233 97.8801C80.5561 100.402 81.7653 102.861 82.0129 105.578C82.1699 106.775 82.0519 107.991 81.6678 109.136C81.2837 110.28 80.6436 111.323 79.796 112.184C78.4486 113.511 77.1761 114.907 75.8345 116.205C73.9458 118.101 71.5216 118.784 69.0975 119.278ZM67.2837 107.215C67.2286 107.489 67.2412 107.772 67.3205 108.041C67.3997 108.309 67.5432 108.554 67.7385 108.754C68.5638 109.405 69.568 109.79 70.6176 109.857C70.7911 109.884 70.9686 109.852 71.1219 109.767C71.2752 109.681 71.3956 109.548 71.464 109.386C72.0836 107.929 72.502 106.395 72.7078 104.825C72.7447 104.704 72.7366 104.573 72.6848 104.457C72.6329 104.341 72.541 104.247 72.4257 104.193C69.9669 102.815 67.2952 104.343 67.2837 107.203V107.215Z" fill="black"/>
<path d="M70.5312 90.2917C67.2088 90.2917 63.8921 90.2917 60.5754 90.2917C59.8384 90.2917 59.562 90.1079 59.5908 89.3152C59.6887 86.7359 59.4986 84.1451 59.6944 81.5659C59.7462 80.8823 60.0284 80.6639 60.6675 80.6697C62.1819 80.6697 63.6963 80.6697 65.2107 80.6697C65.7865 80.6697 65.988 80.5261 65.965 79.9459C65.8844 77.9181 65.8614 75.8845 65.775 73.8567C65.775 73.4431 65.8786 73.3512 66.2356 73.3455C69.0859 73.2593 71.9362 73.1789 74.7922 73.0698C75.4313 73.041 75.4026 73.4488 75.4083 73.8567C75.4371 75.8041 75.4947 77.7515 75.4832 79.6932C75.4832 80.3251 75.6156 80.5433 76.2893 80.5433C78.2355 80.5433 80.1876 80.6123 82.1396 80.6812C83.3718 80.7214 83.3718 80.7443 83.366 81.9392C83.366 84.4897 83.4063 87.0461 83.199 89.6024C83.153 90.1768 83.0666 90.3434 82.4044 90.2802C78.4544 89.9528 74.487 90.1596 70.5312 90.2917Z" fill="black"/>
<path d="M135.989 86.2016C136.087 82.7549 136.145 84.1508 136.26 81.2327C136.26 80.6582 136.087 80.5605 135.592 80.618C134.279 80.7711 132.963 80.9148 131.642 81.0488C130.657 81.1464 129.661 81.1983 128.671 81.3132C128.279 81.3534 128.147 81.2212 128.095 80.8536C127.596 78.1313 127.275 75.3796 127.133 72.6159C127.133 72.1162 127.26 71.9094 127.761 71.8348C132.114 71.2144 136.479 70.6858 140.89 70.9271C144.344 71.1167 146.498 73.2937 146.227 76.7232C145.652 83.8693 145.87 82.4103 145.68 89.5621C145.68 89.9987 145.68 90.2802 145.07 90.309C142.344 90.4392 139.625 90.6095 136.911 90.8201C136.191 90.8776 135.972 90.711 135.984 89.9642C136.018 87.0977 135.989 88.5683 135.989 86.2016Z" fill="black"/>
<path d="M150.736 86.2016C150.828 82.7549 150.891 84.1508 151.007 81.2327C151.007 80.6582 150.834 80.5605 150.339 80.618C149.02 80.7731 147.707 80.9167 146.389 81.0488C145.398 81.1464 144.408 81.1983 143.417 81.3132C143.026 81.3534 142.893 81.2212 142.842 80.8536C142.344 78.131 142.021 75.3795 141.874 72.6159C141.874 72.1162 142.001 71.9094 142.502 71.8348C146.861 71.2144 151.225 70.6858 155.636 70.9271C162.39 70.9731 161.245 73.2937 160.974 76.7232C160.398 83.8693 160.617 82.4103 160.398 89.5621C160.398 89.9987 160.398 90.2802 159.782 90.309C157.064 90.4392 154.346 90.6095 151.629 90.8201C150.909 90.8776 150.69 90.711 150.701 89.9642C150.765 87.0977 150.736 88.5683 150.736 86.2016Z" fill="black"/>
</g>
<defs>
<clipPath id="clip0_8_1017">
<rect width="274" height="137" fill="white"/>
</clipPath>
</defs>
</svg>
