<svg xmlns="http://www.w3.org/2000/svg" width="90" height="14" viewBox="0 0 90 14" fill="none">
  <g clip-path="url(#clip0_2_47)">
    <path d="M14.2936 13.6831V7.78493C14.2934 7.49022 14.2708 7.19591 14.226 6.90439C14.191 6.64956 14.1075 6.40316 13.9798 6.1776C13.8607 5.98659 13.695 5.82664 13.4971 5.71171C13.2557 5.57687 12.9792 5.51217 12.7006 5.52537C12.4138 5.51808 12.1303 5.58568 11.88 5.72104C11.646 5.84902 11.4461 6.02763 11.2959 6.24283C11.1326 6.46866 11.0132 6.72125 10.9435 6.98827C10.8698 7.27638 10.8325 7.57202 10.8325 7.86878V13.7017H7.14441V7.52403C7.1731 7.00602 7.04025 6.4916 6.76304 6.04717C6.62583 5.86459 6.44242 5.71903 6.23028 5.62441C6.01814 5.52979 5.78438 5.48926 5.55138 5.50672C5.28396 5.4968 5.01837 5.55327 4.78003 5.67073C4.54169 5.78819 4.33859 5.96272 4.19011 6.1776C3.85632 6.66593 3.68767 7.24216 3.70738 7.82687V13.6831H0V2.88378H3.57221V4.37927H3.61564C3.74981 4.13878 3.91175 3.91372 4.09836 3.70839C4.31221 3.48207 4.55946 3.28741 4.83212 3.13069C5.13596 2.95992 5.46015 2.82539 5.79758 2.73003C6.17461 2.62816 6.56463 2.57797 6.95614 2.58094C7.67248 2.55568 8.3827 2.71659 9.01257 3.04683C9.58022 3.36828 10.0382 3.84271 10.3304 4.41189C10.6941 3.85857 11.1909 3.39826 11.7786 3.07012C12.4296 2.71979 13.1673 2.54743 13.9123 2.57161C14.5805 2.54718 15.2444 2.68496 15.8432 2.9723C16.3367 3.22002 16.7632 3.57582 17.0886 4.01123C17.408 4.44229 17.6406 4.92749 17.7741 5.44151C17.9154 5.94747 17.9884 6.4689 17.9913 6.99291V13.6738L14.2936 13.6831Z" fill="#1D1D1B"/>
    <path d="M30.5665 7.17475L30.663 7.59406C30.6953 7.72926 30.7195 7.86615 30.7354 8.00405L22.8138 9.71385C22.9108 9.99593 23.0763 10.2515 23.2965 10.4593C23.5093 10.6661 23.7597 10.8335 24.0351 10.9531C24.3222 11.0795 24.6288 11.1598 24.9427 11.1907C25.2654 11.2251 25.5919 11.2062 25.9081 11.1348C26.4119 11.0429 26.8834 10.8298 27.2791 10.5152C27.614 10.2419 27.8812 9.89961 28.0611 9.51353L30.914 10.4919C30.5727 11.3207 30.0077 12.0463 29.2776 12.5931C28.4526 13.1973 27.4973 13.6144 26.4825 13.8137C25.6917 13.9905 24.8756 14.0362 24.0689 13.9488C23.3067 13.8686 22.5685 13.6438 21.8966 13.2872C21.2288 12.9219 20.6494 12.4232 20.1974 11.8244C19.6958 11.1454 19.3472 10.3724 19.174 9.55544C18.9736 8.75583 18.944 7.92518 19.0872 7.11418C19.2113 6.38851 19.4898 5.69554 19.9052 5.07892C20.3207 4.46231 20.8639 3.93541 21.5008 3.53148C22.1779 3.09012 22.9342 2.77416 23.731 2.5997C24.4869 2.42613 25.2702 2.39452 26.0385 2.50655C26.752 2.61509 27.4324 2.87266 28.0321 3.26129C28.6524 3.67346 29.1796 4.20282 29.5817 4.81734C30.0541 5.53963 30.3877 6.3382 30.5665 7.17475ZM26.946 6.55977C26.8341 6.0372 26.5243 5.57371 26.0771 5.25995C25.8216 5.09739 25.5319 4.99137 25.229 4.94948C24.926 4.9076 24.6173 4.93089 24.3248 5.01767C23.9957 5.08642 23.6818 5.21106 23.3979 5.38574C23.1405 5.54612 22.9149 5.74965 22.7317 5.98673C22.5595 6.2157 22.4319 6.47303 22.3552 6.74614C22.2824 7.01375 22.2692 7.29322 22.3166 7.56611L26.946 6.55977Z" fill="#1D1D1B"/>
    <path d="M43.1415 7.17478L43.2428 7.5941C43.2751 7.7293 43.2993 7.86619 43.3152 8.00408L35.3985 9.72322C35.4984 10.004 35.6635 10.2589 35.8812 10.4686C36.0922 10.6775 36.343 10.8452 36.6198 10.9625C37.2068 11.2189 37.8646 11.2827 38.4928 11.1442C38.9976 11.0513 39.4705 10.8383 39.8685 10.5245C40.202 10.251 40.4676 9.90868 40.6457 9.52289L43.5035 10.5012C43.1604 11.3304 42.5937 12.0559 41.8622 12.6024C41.0396 13.2074 40.0857 13.6247 39.0721 13.823C38.2812 13.9993 37.4651 14.045 36.6584 13.9581C35.8976 13.8787 35.1607 13.6538 34.4909 13.2966C33.8206 12.9327 33.2395 12.4338 32.7869 11.8337C31.8109 10.4565 31.414 8.77269 31.6766 7.12354C31.8008 6.39787 32.0794 5.70487 32.4948 5.08826C32.9102 4.47164 33.4534 3.94478 34.0903 3.54085C34.7687 3.09867 35.5267 2.78266 36.3253 2.60907C37.0795 2.4354 37.8613 2.40376 38.6279 2.51588C39.3428 2.62521 40.0246 2.8827 40.6265 3.27062C41.2467 3.6828 41.7739 4.21218 42.176 4.82671C42.6429 5.5463 42.9701 6.34198 43.1415 7.17478ZM39.521 6.55981C39.4091 6.03724 39.0993 5.57375 38.6521 5.25998C38.3975 5.09752 38.1087 4.99152 37.8065 4.94964C37.5044 4.90775 37.1963 4.931 36.9046 5.01771C36.5749 5.0847 36.2608 5.20946 35.9778 5.38578C35.7182 5.54344 35.4921 5.7474 35.3116 5.98677C35.1356 6.21358 35.0077 6.47163 34.9351 6.74617C34.8592 7.01333 34.846 7.29345 34.8965 7.56614L39.521 6.55981Z" fill="#1D1D1B"/>
    <path d="M89.6621 7.17475L89.7634 7.59406C89.7924 7.73849 89.8165 7.8736 89.831 8.00405L81.9191 9.71385C82.0151 9.9964 82.1807 10.2522 82.4018 10.4593C82.6124 10.6666 82.8612 10.8341 83.1356 10.9531C83.4227 11.0795 83.7292 11.1598 84.0431 11.1907C84.3659 11.2251 84.6924 11.2062 85.0086 11.1348C85.5123 11.0429 85.9839 10.8298 86.3796 10.5152C86.7145 10.2419 86.9817 9.89961 87.1616 9.51353L90.0145 10.4919C89.6732 11.3207 89.1081 12.0463 88.378 12.5931C87.5531 13.1973 86.5978 13.6144 85.583 13.8137C84.7922 13.9905 83.9761 14.0362 83.1694 13.9488C82.4072 13.8686 81.669 13.6438 80.9971 13.2872C80.3293 12.9219 79.7499 12.4232 79.2979 11.8244C78.7963 11.1454 78.4477 10.3724 78.2745 9.55544C78.0741 8.75583 78.0445 7.92518 78.1876 7.11418C78.3117 6.38851 78.5903 5.69554 79.0057 5.07892C79.4212 4.46231 79.9644 3.93541 80.6012 3.53148C81.2784 3.09012 82.0346 2.77416 82.8315 2.5997C83.5873 2.42613 84.3707 2.39452 85.1389 2.50655C85.8525 2.61509 86.5329 2.87266 87.1326 3.26129C87.7529 3.67346 88.28 4.20282 88.6821 4.81734C89.1528 5.53996 89.4848 6.33852 89.6621 7.17475ZM86.0416 6.55977C85.9297 6.0372 85.6199 5.57371 85.1727 5.25995C84.9174 5.09709 84.6277 4.99089 84.3247 4.949C84.0217 4.90711 83.7129 4.93056 83.4204 5.01767C83.0913 5.08642 82.7775 5.21106 82.4936 5.38574C82.2361 5.54612 82.0105 5.74965 81.8274 5.98673C81.6551 6.2157 81.5275 6.47303 81.4509 6.74614C81.3781 7.01375 81.3649 7.29322 81.4123 7.56611L86.0416 6.55977Z" fill="#1D1D1B"/>
    <path d="M49.4363 5.52084V9.65794C49.407 10.0602 49.5137 10.4607 49.7404 10.7994C49.8781 10.9403 50.048 11.0482 50.2366 11.1145C50.4251 11.1808 50.6272 11.2037 50.8265 11.1814C51.0188 11.1807 51.2108 11.1666 51.401 11.1395C51.5664 11.1135 51.7283 11.0698 51.8837 11.009L51.9272 13.6087C51.6126 13.7109 51.2896 13.7873 50.9617 13.837C50.5759 13.9019 50.1851 13.9346 49.7935 13.9348C49.1528 13.952 48.5139 13.8605 47.906 13.6646C47.4352 13.5081 47.0133 13.2388 46.6799 12.8819C46.3653 12.5294 46.139 12.1117 46.0185 11.6613C45.8777 11.1476 45.8096 10.6179 45.8158 10.0866V5.52084H44.0538V2.87458H45.8303V0.754789L49.4508 -0.00927734V2.87458H52.0816V5.52084H49.4363Z" fill="#1D1D1B"/>
    <path d="M73.2589 13.6831V7.78493C73.2588 7.49022 73.2362 7.19591 73.1913 6.90439C73.1564 6.64956 73.0729 6.40316 72.9451 6.1776C72.8261 5.98659 72.6603 5.82664 72.4624 5.71171C72.2196 5.57599 71.9412 5.51127 71.6611 5.52537C71.3744 5.51922 71.0912 5.58674 70.8405 5.72104C70.6085 5.85162 70.4092 6.02974 70.2564 6.24283C70.0966 6.46997 69.979 6.72222 69.9088 6.98827C69.8351 7.27638 69.7978 7.57202 69.7977 7.86878V13.7017H66.1097V7.52403C66.1384 7.00602 66.0056 6.4916 65.7284 6.04717C65.5912 5.86459 65.4077 5.71903 65.1956 5.62441C64.9834 5.52979 64.7497 5.48926 64.5167 5.50672C64.2493 5.4968 63.9837 5.55327 63.7454 5.67073C63.507 5.78819 63.3039 5.96272 63.1554 6.1776C62.8216 6.66593 62.6529 7.24216 62.6727 7.82687V13.6831H58.9653V2.88378H62.5375V4.37927H62.581C62.7151 4.13878 62.8771 3.91372 63.0637 3.70839C63.2768 3.48319 63.5223 3.28865 63.7926 3.13069C64.0962 2.95951 64.4205 2.82495 64.7581 2.73003C65.1351 2.62816 65.5251 2.57797 65.9166 2.58094C66.633 2.55568 67.3432 2.71659 67.9731 3.04683C68.5389 3.36899 68.9952 3.84335 69.2861 4.41189C69.6502 3.85893 70.1469 3.3987 70.7343 3.07012C71.3853 2.71979 72.1229 2.54743 72.8679 2.57161C73.5361 2.54718 74.2 2.68496 74.7988 2.9723C75.2923 3.22002 75.7189 3.57582 76.0443 4.01123C76.3617 4.44338 76.5941 4.92821 76.7297 5.44151C76.8697 5.94761 76.9412 6.46908 76.9422 6.99291V13.6738L73.2589 13.6831Z" fill="#1D1D1B"/>
  </g>
  <defs>
    <clipPath id="clip0_2_47">
      <rect width="90" height="14" fill="white"/>
    </clipPath>
  </defs>
</svg>