<svg width="190" height="269" viewBox="0 0 190 269" fill="none" xmlns="http://www.w3.org/2000/svg">
<g clip-path="url(#clip0_2_331)">
<path d="M46.9898 222.644C41.4431 223.491 36.0833 223.131 30.731 223.078C25.9692 223.033 25.73 222.973 27.3297 218.318C29.52 211.947 32.0765 205.702 34.5509 199.435C39.3126 187.344 42.2355 174.646 46.7656 162.479C47.3785 160.815 46.6086 160.298 45.2705 159.751C40.7853 157.884 36.3749 155.838 31.8598 154.031C25.5781 151.55 20.0493 147.47 15.8177 142.195C3.45358 127.008 -2.53415 110.104 0.979248 90.3513C2.03327 84.4593 2.83313 78.5148 3.52833 72.5629C5.15795 58.5301 11.1158 46.5587 20.5122 36.2065C24.6243 31.8706 28.0912 26.9625 30.8058 21.6339C34.8723 13.2607 43.2073 10.3447 50.9442 7.09884C60.4229 3.11838 70.5296 1.43174 80.7857 0.772074C94.6076 -0.11997 108.512 -0.899577 122.027 2.78104C131.85 5.45717 141.209 9.73001 150.844 13.0583C168.725 19.2277 179.191 32.196 185.231 49.3622C188.692 59.2497 188.423 69.7893 189.634 80.0965C191.615 96.9029 186.075 111.048 174.115 122.825C173.254 123.711 172.604 124.783 172.216 125.958C171.02 129.107 169.652 132.18 168.307 135.276C163.38 146.633 153.506 151.767 142.607 155.268C139.018 156.415 138.802 157.854 139.616 161.093C142.121 170.65 145.485 179.916 148.751 189.203C151.741 197.577 153.939 206.145 156.668 214.57C157.243 216.347 156.832 216.819 155.038 217.269C145.381 219.746 135.449 220.983 125.481 220.95C120.472 220.95 120.472 221.069 120.614 225.874C120.861 234.188 120.868 234.165 129.271 235.17C136.216 236.054 142.901 238.38 148.901 241.999C155.516 245.889 155.202 254.57 148.901 259.06C136.94 267.538 123.567 268.213 109.872 266.459C96.9623 264.802 84.2692 264.697 71.449 267.463C62.414 269.436 53.0815 269.616 43.9772 267.995C39.6266 267.246 33.5716 262.523 32.682 258.895C31.2916 253.228 33.3623 248.153 38.5203 244.712C40.6427 243.163 43.0722 242.09 45.6443 241.564C52.2001 240.477 58.2401 237.659 64.6315 236.054C66.5975 235.567 66.8293 234.555 66.7695 232.868C66.6345 230.12 66.6794 227.365 66.904 224.623C67.1358 222.186 66.2014 221.624 63.9588 221.767C58.2252 222.096 52.4991 222.344 46.9898 222.644Z" fill="black"/>
<path d="M89.6215 252.418C89.6215 254.008 89.3449 255.027 87.5359 255.267C74.9773 256.931 62.5534 259.765 49.7855 259.637C48.1858 259.637 46.5188 259.772 45.2181 258.505C41.9888 255.372 42.8111 251.841 47.371 250.964C54.1362 249.667 60.4752 247.059 67.0685 245.252C76.5397 242.666 76.7265 242.314 76.2107 232.396C76.2107 232.149 76.2107 231.894 76.2107 231.647C75.822 221.279 77.1302 220.162 87.4237 221.557C89.4196 221.827 89.4645 222.899 89.4645 224.345C89.4645 229.083 89.5019 230.762 89.5019 235.5C89.5617 235.5 89.5691 238.566 89.6289 238.566C89.599 243.183 89.5542 247.801 89.6215 252.418Z" fill="#BABABA"/>
<path d="M140.013 248.198C141.052 248.715 142.547 248.835 142.517 250.544C142.487 252.253 141.373 253.086 139.886 253.745C131.177 257.613 122.049 257.951 112.773 257.156C109.304 256.856 105.85 256.234 102.374 256.129C99.9524 256.046 99.0927 255.199 99.1525 252.808C99.2647 247.943 99.2423 248.086 99.2423 243.213C99.1974 243.213 99.0928 238.198 99.0554 238.198C99.0554 233.453 99.1376 228.708 99.0105 223.955C98.9582 221.999 99.601 221.422 101.537 221.317C110.672 220.807 110.65 220.747 111.18 229.675C112.055 244.203 111.502 240.814 124.225 243.918C129.525 245.252 135.034 245.717 140.013 248.198Z" fill="#BABABA"/>
<path d="M144.318 206.22C145.2 209.136 144.67 210.125 141.515 210.395C124.367 211.894 107.129 212.037 89.9952 211.894C74.4017 211.789 58.868 212.306 43.3343 213.318C42.2429 213.393 41.1515 213.446 39.9854 213.506C39.806 211.414 40.8077 209.908 41.4804 208.356C46.9449 195.185 50.6153 181.422 54.9958 167.877C55.9228 164.998 56.8647 163.761 60.1837 164.998C64.6689 166.655 69.4381 166.228 74.1999 166.22C92.2154 166.175 109.947 163.829 127.566 160.38C129.293 160.043 129.809 160.583 130.13 162.022C133.711 177.149 139.841 191.415 144.318 206.22Z" fill="white"/>
<path d="M23.1585 58.5676C23.2706 60.0218 22.7773 60.6215 21.327 60.569C19.8768 60.5166 17.709 61.1687 17.1185 60.4491C16.0271 59.1448 17.6492 57.5481 18.2472 56.1388C19.3682 53.6913 20.8611 51.4331 22.6726 49.4447C22.8221 52.9304 22.9118 55.7565 23.1585 58.5676Z" fill="#BABABA"/>
<path d="M33.4969 86.101C34.1547 86.9405 35.1863 87.7276 33.766 88.8445C26.0589 94.9014 18.3743 100.988 10.0842 107.54C9.00776 100.793 10.0842 95.1189 10.8317 89.4817C11.5045 84.4143 12.409 79.3844 12.9921 74.3095C13.2687 71.9182 14.1807 70.6514 16.6625 70.6439C17.6558 70.5962 18.6434 70.4658 19.6152 70.254C23.3006 69.5869 25.6328 70.5539 26.5747 74.6768C27.6437 79.1145 30.7235 82.5553 33.4969 86.101Z" fill="#BABABA"/>
<path d="M159.957 130.268C157.071 135.568 154.283 139.706 149.162 142.067C136.021 148.055 122.093 152.126 107.801 154.159C95.0336 156.055 82.2359 155.703 69.4905 156.857C68.3709 156.921 67.2483 156.807 66.164 156.52C53.202 153.359 40.7726 148.308 29.2733 141.528C20.9458 136.633 16.6849 127.63 12.9697 118.777C12.3417 117.277 13.3958 116.715 14.2778 116.108C23.1137 110.021 31.1048 102.84 39.6341 96.3558C41.1292 95.2238 42.0262 95.2013 43.3717 96.5056C51.759 104.429 61.6339 109.811 72.5255 113.507C75.0871 114.487 77.597 115.598 80.0456 116.835C100.976 126.513 122.834 132.262 146.09 131.738C150.741 131.573 155.374 131.082 159.957 130.268Z" fill="#BABABA"/>
<path d="M180.14 81.6558C181.254 92.0155 178.705 101.326 172.665 109.916C167.275 117.562 160.286 121.318 151.039 121.91C128.486 123.334 107.286 118.162 86.8033 109.272C82.1238 107.24 77.5564 104.984 72.7273 103.275C58.0832 98.1324 46.5637 88.6572 38.0942 75.9137C31.3664 65.7414 31.4561 53.9574 33.7435 42.2409C34.0052 40.8991 34.663 39.6173 34.8275 38.268C36.3674 25.487 44.7398 19.1302 55.9752 15.3072C68.1674 11.1543 80.7483 9.93242 94.8916 9.76001C103.406 9.30274 113.348 9.62508 122.685 12.9534C131.812 16.1992 140.895 19.6475 149.925 23.2306C165.07 29.2276 172.956 40.8017 176.993 55.6591C179.243 64.1222 179.176 72.9752 180.14 81.6558Z" fill="#FFC54C"/>
<path d="M120.083 91.783C119.089 91.7006 117.22 91.6181 115.374 91.3558C108.138 90.3213 108.908 91.7306 110.141 84.0845C110.567 81.4608 111.532 80.8536 114.103 81.3559C119.126 82.3304 124.344 83.1925 129.054 80.5013C134.623 77.3379 139.355 73.3724 138.151 65.8463C138.099 65.6665 138.084 65.4778 138.108 65.292C138.132 65.1063 138.194 64.9275 138.29 64.7669C138.386 64.6064 138.515 64.4675 138.667 64.3591C138.819 64.2507 138.992 64.1752 139.175 64.1372C139.419 64.0588 139.669 64.0035 139.923 63.9722C142.315 63.6949 145.223 61.446 146.912 63.2226C149.035 65.4715 148.841 68.9947 147.914 72.1356C144.475 83.9271 133.188 92.1503 120.083 91.783Z" fill="black"/>
<path d="M83.4843 34.6997C84.6056 34.7672 85.7268 34.7522 86.8332 34.9171C88.7917 35.2095 91.0493 35.4869 91.2212 37.9906C91.3856 40.3744 88.4404 42.4883 86.1081 42.8706C81.4809 43.6202 76.9508 44.6097 73.7439 48.7476C71.8975 51.1388 68.6607 51.1014 65.9397 51.4687C64.5493 51.6561 64.3699 49.6771 64.3624 48.4702C64.3505 46.9684 64.6562 45.4811 65.2592 44.1063C65.8622 42.7315 66.7489 41.5004 67.8608 40.4943C72.1213 36.6026 77.7239 34.5247 83.4843 34.6997Z" fill="black"/>
<path d="M128.74 24.5349L127.544 29.37C127.297 30.352 126.677 30.2545 125.832 30.1196C120.083 29.4374 114.836 29.9172 111.001 35.277C109.267 37.6982 106.516 35.6518 104.468 35.1645C102.673 34.7297 103.675 32.6233 104.154 31.289C106.979 23.2906 117.998 19.1527 126.878 22.1512C127.97 22.556 128.874 23.2606 128.74 24.5349Z" fill="black"/>
<path d="M89.046 134.309C94.645 134.054 99.945 134.969 104.639 138.237C107.069 139.931 107.547 141.453 104.639 143.537C101.851 145.516 99.7132 146.168 96.0877 144.983C89.6365 142.862 82.9087 143.567 76.6519 146.692C75.269 147.39 68.1301 144.856 67.5171 143.342C67.1059 142.315 67.9432 141.738 68.4739 141.13C71.2836 137.907 75.1914 135.852 79.4327 135.366C82.6247 134.938 85.8391 134.654 89.046 134.309Z" fill="black"/>
</g>
<defs>
<clipPath id="clip0_2_331">
<rect width="190" height="269" fill="white"/>
</clipPath>
</defs>
</svg>
