<svg width="268" height="322" viewBox="0 0 268 322" fill="none" xmlns="http://www.w3.org/2000/svg">
<g clip-path="url(#clip0_2_345)">
<path d="M126.897 297.392C119.879 287.746 113.231 278.612 106.61 269.512C105.528 269.757 105.366 270.582 105.052 271.185C101.722 277.385 96.1891 279.086 89.6753 278.517C85.0281 278.11 80.3417 272.874 80.0166 267.956C79.712 264.058 79.9897 260.136 80.8406 256.319C81.2442 254.596 81.0144 253.781 79.114 253.53C64.8362 251.668 54.3029 243.36 44.8853 233.401C42.0824 230.406 40.9612 226.274 40.3334 222.187C39.4253 216.505 38.562 210.817 37.6146 205.141C37.2483 203.313 37.5588 201.416 38.4891 199.799C42.7999 192.21 47.0266 184.57 51.4496 176.647C34.3969 174.567 17.2041 173.814 0 170.195C3.02711 166.849 5.5104 163.13 9.25504 160.621C25.5958 149.675 41.7684 138.456 58.2494 127.722C66.9663 122.062 66.0582 124.655 63.1264 113.993C59.5051 100.833 55.1998 87.8688 51.1749 74.8207C49.3026 68.7482 49.1456 62.4193 48.0189 55.8618C54.942 58.7112 61.6072 61.1313 67.9866 64.1479C79.0299 69.3616 89.8939 74.9322 101.487 78.9136C105.136 80.1682 105.186 80.2853 105.893 76.3262C107.972 64.6163 109.52 52.8172 112.132 41.2411C115.209 27.6075 117.738 13.8065 122.547 0.0390015C124.47 3.30105 126.157 6.23409 127.901 9.12811C138.468 26.6707 146.96 45.3061 156.944 63.1665C159.652 68.0234 159.613 68.0345 163.475 64.1758C168.943 58.7038 174.412 53.2391 179.883 47.7819C184.368 43.2876 189.592 39.7579 195.086 35.9717C195.428 39.4122 195.798 42.5237 196.033 45.6463C196.992 58.5216 197.956 71.3913 198.802 84.2722C198.959 86.7202 200.254 86.0287 201.605 85.7443C215.67 82.8057 229.707 79.6998 243.817 77.001C250.673 75.6961 257.674 75.1552 264.771 74.2463C264.833 75.5735 263.969 76.2426 263.465 77.0344C255.23 89.6867 245.526 101.252 236.333 113.201C232.818 117.774 229.158 122.24 225.396 126.617C224.152 128.073 224.426 128.898 225.643 130.013C231.406 135.311 237.107 140.669 242.881 145.956C251.247 153.644 259.088 161.88 266.352 170.608C266.873 171.238 267.305 171.94 267.994 172.911C256.172 175.325 244.45 176.368 232.409 178.604C235.03 181.118 237.403 183.876 239.495 186.84C241.232 189.433 242.006 191.992 241.249 195.204C240.369 199.195 239.74 203.236 239.366 207.304C238.906 211.654 236.995 215.195 234.321 218.54C228.715 225.471 221.237 230.133 214.336 235.486C212.094 237.226 211.471 238.492 212.464 241.313C214.448 246.99 216.253 252.8 215.788 258.99C215.659 260.662 214.88 261.778 213.854 263.077C209.033 269.211 202.642 268.218 196.229 267.326C192.305 266.768 192.35 266.768 192.743 270.722C193.404 277.329 195.333 283.631 197.295 289.932C197.76 291.415 198.601 291.945 200.153 291.906C215.289 291.543 230.088 294.047 244.624 298.162C246.614 298.665 248.565 299.306 250.465 300.08C256.923 302.935 258.089 309.983 253.061 314.879C250.022 317.84 246.121 318.833 242.208 319.691C234.984 321.263 227.543 321.6 220.205 320.69C207.513 319.086 194.739 318.195 181.946 318.019C179.99 318.019 178.022 317.823 176.082 317.617C170.807 317.06 165.762 318.041 160.594 319.078C151.804 320.84 142.829 321.381 133.849 321.559C127.122 321.693 120.395 322.162 113.668 322.028C104.043 321.838 94.4906 320.796 85.2467 317.857C84.1788 317.519 83.1402 317.096 82.1411 316.591C79.7418 315.376 76.967 314.361 76.7316 311.154C76.4905 307.837 78.845 305.885 81.2162 304.229C83.8341 302.4 86.9004 301.441 90.0172 300.755C99.1714 298.686 108.483 298.123 117.827 297.844C120.619 297.71 123.416 297.537 126.897 297.392ZM194.822 186.16C195.31 191.557 194.262 196.414 194.368 201.605C201.073 197.546 203.018 191.936 194.822 186.143V186.16Z" fill="black"/>
<path d="M100.595 257.467C102.44 262.413 97.9717 270.22 93.0667 270.934C89.8434 271.402 87.5395 269.607 87.5563 266.283C87.5563 261.175 87.8198 256.068 88.9017 251.055C89.2829 249.276 88.9913 248.334 87.0349 247.915C83.9405 247.252 80.9359 246.192 77.8415 245.551C67 243.321 58.7819 236.975 51.4945 229.107C50.7649 228.251 50.2944 227.207 50.1378 226.096C48.6523 218.73 47.1892 211.358 45.6532 203.992C45.4817 203.266 45.6024 202.501 45.9896 201.862C50.2275 194.658 53.7928 187.068 58.5745 180.176C59.6621 178.609 60.8617 178.169 62.7789 178.319C66.6823 178.648 70.5628 179.206 74.3996 179.992C75.773 180.26 76.2271 180.728 75.8907 182.223C72.0172 199.632 70.0103 217.352 67.8016 234.99C67.7604 235.755 67.7604 236.522 67.8016 237.287C76.5858 231.845 84.6189 226.057 93.106 219.795C93.3863 224.256 94.1206 228.159 94.5186 232.062C95.4392 240.755 97.4815 249.294 100.595 257.467Z" fill="#5B5B5B"/>
<path d="M245.28 306.247C246.446 306.61 248.268 306.593 248.229 308.26C248.195 309.816 246.547 310.407 245.263 310.87C238.269 313.313 230.806 314.131 223.445 313.262C209.706 311.74 195.977 310.602 182.125 310.312C177.742 310.223 173.364 309.928 168.98 309.755C166.738 309.666 166.177 307.792 165.46 306.298C163.537 302.344 162.954 297.933 161.721 293.779C160.079 288.257 157.946 282.892 155.347 277.748C153.43 273.922 151.546 270.075 150.302 265.982C149.859 264.516 149.18 264.237 147.891 264.638C141.725 266.523 141.557 264.688 144.158 271.33C146.176 276.51 148.642 281.517 151.058 286.547C154.685 294.153 155.453 302.667 158.867 310.335C159.686 312.164 158.049 311.785 157.219 311.913C149.548 313.026 141.817 313.683 134.067 313.881C127.071 314.093 120.053 314.651 113.074 314.372C104.256 314.015 95.4268 313.178 86.9509 309.983C92.2147 307.446 97.8709 306.693 103.51 306.231C112.351 305.506 121.219 305.166 130.07 304.614C131.911 304.506 133.664 303.794 135.055 302.589C136.446 301.384 137.396 299.755 137.756 297.956C137.835 297.638 137.809 297.304 137.682 297.003C137.555 296.701 137.333 296.449 137.05 296.283C131.892 292.485 128.899 286.893 125.126 281.963C120.77 276.281 116.471 270.532 112.575 264.532C106.969 255.884 104.256 246.086 102.776 236.016C101.823 229.509 100.685 223.001 100.534 216.382C100.534 215.267 100.534 214.447 101.559 213.812C111.241 207.823 120.406 201.104 129.448 194.217C131.248 192.845 132.727 192.94 134.342 194.501C144.808 204.639 157.415 212.183 168.061 222.115C169.126 223.107 170.028 223.865 169.742 225.566C169.574 226.587 169.995 227.797 170.393 228.8C174.35 238.899 177.119 249.521 183.527 258.538C184.474 259.865 184.239 261.393 184.317 262.848C184.962 274.341 187.176 285.476 191.638 296.143C192.395 297.961 193.32 298.591 195.344 298.653C212.301 299.205 229.029 301.218 245.28 306.247Z" fill="#5B5B5B"/>
<path d="M229.399 186.316C232.572 189.009 233.794 192.265 232.986 196.448C232.416 199.554 232.11 202.703 232.073 205.86C232.028 208.364 231.058 210.321 229.573 212.156C226.663 215.91 223.251 219.251 219.432 222.087C214.355 225.72 209.466 229.606 204.784 233.73C203.455 234.912 203.225 235.96 203.663 237.633C205.087 242.651 206.527 247.631 207.671 252.688C209.274 259.781 208.585 260.233 201.381 260.222C195.506 260.222 191.633 257.891 188.74 252.817C184.972 246.188 181.985 239.149 179.838 231.839C183.589 234.783 186.778 237.332 190.024 239.802C190.629 240.265 191.235 241.319 192.076 240.8C192.507 240.533 192.479 239.462 192.591 238.743C193.819 230.724 193.774 222.639 193.959 214.564C193.998 212.769 194.363 211.375 195.966 210.315C197.569 209.256 198.803 207.873 200.372 206.886C204.375 204.36 206.51 200.786 207.794 196.291C208.848 192.583 208.316 189.6 205.944 186.751C204.941 185.546 203.96 184.314 202.743 182.847C206.936 181.604 211.152 181.437 215.076 180.344C220.564 178.821 224.398 180.901 227.784 184.805C228.283 185.348 228.823 185.854 229.399 186.316Z" fill="#5B5B5B"/>
<path d="M248.677 83.9488C249.131 84.7016 248.509 85.0306 248.206 85.4153C237.421 99.3111 226.96 113.469 215.339 126.679C214.056 128.14 213.871 128.909 215.384 130.454C223.827 139.153 233.065 147.004 241.849 155.335C245.812 159.099 249.49 163.141 253.683 167.485C247.404 168.461 241.72 169.387 236.019 170.217C226.416 171.623 216.662 171.946 207.172 174.121C201.448 175.425 195.809 177.104 190.097 178.47C188.37 178.883 187.922 179.847 187.737 181.386C186.952 188.128 186.935 194.914 186.705 201.678C186.436 209.836 186.644 217.999 186.397 226.163C185.192 226.531 184.839 225.951 184.441 225.605C170.508 214.375 156.58 203.146 142.655 191.92C139.533 189.422 136.147 187.252 132.94 184.849C131.399 183.689 130.328 184.726 129.157 185.407C122.749 189.109 117.385 194.217 111.218 198.271C100.158 205.553 89.2716 213.081 78.6263 220.949C78.4378 221.148 78.1922 221.283 77.9232 221.337C77.6542 221.391 77.375 221.36 77.124 221.25C78.0209 215.367 79.0356 209.44 79.798 203.473C80.7397 196.096 82.5167 188.87 83.722 181.548C84.6918 175.782 84.6189 175.911 79.03 174.227C67.3532 170.702 55.2728 169.637 43.2708 168.02C35.2041 166.905 27.0814 166.727 19.0147 165.756C18.2972 165.667 17.5853 165.489 16.8677 165.349L16.6323 164.675C26.2405 158.764 35.0472 151.716 44.5377 145.632C53.6415 139.799 62.9639 134.29 71.4454 127.521C73.0598 126.233 73.5419 125.073 73.1271 123.06C70.7054 110.792 66.6973 99.0323 62.8685 87.1886C60.8505 80.9433 58.782 74.6924 57.3077 67.8784C60.6375 68.7315 63.2666 70.2371 65.9854 71.5363C75.4815 76.0865 84.8487 80.9321 94.799 84.4897C99.0986 86.0287 103.437 87.4841 107.653 89.2239C110.372 90.3391 111.016 89.4023 111.538 86.8428C113.382 77.921 115.075 68.9992 116.454 60.0104C118.455 46.9678 121.314 34.0981 124.302 21.2618C124.403 20.8269 124.521 20.3975 124.812 19.2823C126.623 22.3492 128.237 24.8584 129.628 27.4848C136.489 40.4772 142.93 53.6927 150.094 66.5178C152.336 70.4936 154.579 74.4192 157.673 77.8541C158.996 79.3206 159.562 79.1924 160.796 77.8541C168.845 69.0549 177.467 60.8023 185.932 52.4046C186.571 51.7689 187.131 50.9771 188.449 50.7318C188.892 55.5607 189.508 60.3283 189.738 65.1126C190.158 74.0344 191.627 82.8671 191.072 91.8112C190.915 94.3205 192.02 94.6885 194.262 94.3706C207.957 92.4301 221.411 89.3131 234.898 86.3689C239.506 85.3931 244.03 84.3838 248.677 83.9488Z" fill="#353535"/>
<path d="M140.531 176.557C129.997 176.864 119.711 175.314 109.436 173.145C95.6062 170.229 84.8655 155.184 84.8823 142.521C84.8823 126.74 91.5532 114.712 104.233 105.997C120.821 94.5937 139.37 92.1904 158.822 96.0937C167.231 97.7665 173.75 103.147 179.849 108.835C185.293 113.909 189.329 120.06 192.687 126.64C197.356 135.79 196.157 144.857 191.818 153.69C188.819 159.823 184.149 164.636 178.986 168.996C175.656 171.784 171.469 172.66 167.433 173.747C158.626 176.106 149.612 176.741 140.531 176.557Z" fill="black"/>
<path d="M185.993 130.298C189.424 137.14 188.107 143.887 184.928 150.372C182.479 155.39 178.616 159.294 174.412 162.913C171.979 164.992 168.845 165.494 165.902 166.297C157.836 168.528 149.562 169.085 141.237 169.024C131.18 169.281 121.325 167.959 111.526 165.801C97.3327 162.673 89.2155 147.121 93.6273 132.852C99.233 114.696 113.247 106.861 130.48 103.298C135.934 102.183 141.596 102.094 147.213 102.043C158.25 101.943 166.883 107.017 174.541 114.266C179.407 118.844 183.017 124.376 185.993 130.298Z" fill="#FF429B"/>
<path d="M135.962 158.58C127.122 158.491 120.826 156.773 116.902 150.032C115.994 148.465 115.91 147.578 117.822 147.032C118.454 146.861 119.054 146.59 119.599 146.229C121.673 144.779 123.119 145.008 124.414 147.389C125.709 149.77 128.187 150.389 130.62 150.651C138.602 151.515 146.142 149.206 153.671 147.121C155.969 146.485 157.197 144.383 157.662 142.102C158.222 139.359 159.73 138.64 162.41 139.041C167.651 139.827 166.575 139.298 165.375 143.463C163.43 150.232 159.08 154.203 152.191 155.563C146.249 156.734 140.362 158.206 135.962 158.58Z" fill="black"/>
<path d="M157.247 120.127C152.202 119.642 148.625 119.776 146.596 116.196C146.204 115.51 144.914 114.679 146.232 113.91C147.437 113.207 148.188 111.094 150.156 112.281C153.895 114.512 157.41 114.35 160.896 111.662C162.724 110.252 163.043 112.655 164.064 113.246C164.697 113.608 165.891 114.272 164.675 115.376C162.102 117.724 159.798 120.629 157.247 120.127Z" fill="black"/>
<path d="M124.347 123.004C120.922 122.92 118.859 121.097 116.93 119.028C116.465 118.532 116.37 117.997 117.009 117.645C118.13 117.01 118.836 115.365 120.574 116.118C125.177 118.108 128.887 116.675 132.105 113.19C133.49 111.701 134.347 113.514 135.469 113.792C136.59 114.071 137.072 114.958 136.696 116.151C136.411 117.04 135.872 117.827 135.144 118.415C132.064 120.947 128.315 122.541 124.347 123.004Z" fill="black"/>
</g>
<defs>
<clipPath id="clip0_2_345">
<rect width="268" height="322" fill="white"/>
</clipPath>
</defs>
</svg>
