<svg width="121" height="304" viewBox="0 0 121 304" fill="none" xmlns="http://www.w3.org/2000/svg">
<g clip-path="url(#clip0_2_12)">
<path d="M120.995 296.204C119.946 296.516 118.825 296.491 117.791 296.131C112.49 294.67 107.248 292.973 101.983 291.426C98.6634 290.475 95.4017 289.333 92.2144 288.006C90.8247 287.41 90.7342 288.294 90.5531 289.228C89.8243 292.991 88.9778 296.736 88.3893 300.508C88.1358 302.123 87.4432 302.737 85.9132 302.669C81.9975 302.498 78.0728 302.448 74.1708 302.137C69.9111 301.794 65.7465 302.52 61.5683 303.007C59.8708 303.206 59.2416 303.093 59.1374 301.14C58.8523 295.892 58.2819 290.659 57.7794 285.42C57.7206 284.789 57.7342 284.099 57.1683 283.435C53.3523 286.882 49.5634 290.293 45.7835 293.718C43.8823 295.437 41.8408 297.025 40.1523 298.933C37.2597 302.195 33.6971 303.684 29.4284 303.68C28.6453 303.68 27.663 304.42 27.1379 303.63C26.7395 303.03 27.4909 302.245 27.7988 301.582C33.507 289.237 39.9124 277.218 45.1951 264.684C46.5531 261.431 47.7572 258.106 49.0473 254.821C49.2772 254.263 49.3462 253.652 49.2465 253.057C47.6305 242.888 47.3136 232.565 45.7835 222.377C43.8416 209.455 41.7095 196.556 39.8626 183.625C38.3461 173.145 37.0922 162.632 35.716 152.133C35.5531 150.874 35.3313 149.625 35.0959 148.113C33.2852 149.507 32.149 151.271 30.8498 152.823C30.0033 153.843 29.4057 154.06 28.0613 153.509C25.395 152.422 24.0551 150.658 23.2222 147.897C19.5465 135.755 15.6263 123.668 13.0053 111.256C10.7419 100.604 8.89958 89.8568 9.00822 78.9383C8.72304 78.8616 8.55556 78.7623 8.45144 78.7984C5.38231 79.8181 5.62675 79.7594 4.83004 76.6553C3.30906 70.6231 3.37696 64.6044 4.37737 58.545C4.49091 57.7244 4.33193 56.8894 3.92469 56.1673C-0.26255 47.6716 -0.552253 38.6796 0.425525 29.5116C0.53588 28.7699 0.787899 28.0562 1.16792 27.4091C3.88397 22.1348 6.66338 16.8786 9.35679 11.5818C9.85918 10.5746 10.6843 9.76322 11.7016 9.27624C18.202 5.91044 25.0329 3.30714 31.7642 0.47373C32.4416 0.144173 33.1879 -0.0197699 33.9415 -0.00451858C38.3687 0.446661 42.7552 1.12794 46.8292 3.06801C49.253 4.13354 51.1633 6.10063 52.1527 8.54985C55.411 16.3853 59.089 24.0408 63.1708 31.4833C65.6741 35.9951 68.2407 40.5069 70.8029 45.0186C71.0247 45.4067 71.1741 45.8894 71.7082 45.9526C76.0041 46.476 79.3177 49.2417 83.1066 50.9156C83.9667 51.2991 84.2066 52.1202 84.519 52.8737C92.8029 72.7978 99.9099 93.1324 106.46 113.688C107.625 117.119 107.601 120.839 106.392 124.255C104.826 129.096 104.975 129.24 99.8556 129.033C98.0449 128.961 97.5922 129.421 97.6375 131.207C97.9226 139.64 96.5555 147.978 96.0802 156.365C95.4963 166.787 94.4506 177.192 94.437 187.636C94.437 200.865 93.2601 214.044 92.7983 227.25C92.5403 234.609 91.893 241.927 91.0872 249.236C90.7936 251.426 91.3757 253.642 92.7078 255.408C95.4239 259.017 97.9407 262.771 100.779 266.281C108.13 275.382 114.006 285.47 120.47 295.157C120.669 295.493 120.845 295.843 120.995 296.204Z" fill="black"/>
<path d="M57.5033 40.2903C57.8563 41.3461 57.6753 42.3657 57.6255 43.417C57.0619 49.0967 55.6995 54.6692 53.5785 59.9708C50.5456 67.5957 40.9897 73.8806 33.2354 73.1948C27.2284 72.6624 22.2354 69.829 18.2518 65.2676C12.4531 58.6307 9.24359 50.7938 7.43289 42.289C6.93042 39.9294 7.47363 37.6599 7.88556 35.3725C8.03042 34.5558 8.66417 34.1227 9.24359 33.6445C14.7255 29.1643 20.3432 24.8916 26.4452 21.2551C31.3549 18.3067 35.9626 14.8854 40.202 11.0404C41.1979 10.138 41.9357 10.138 43.1716 10.5531C46.6119 11.654 48.3909 13.9234 49.7082 17.2531C52.7094 24.8194 54.9366 32.6203 57.5033 40.2903Z" fill="#63B3E4"/>
<path d="M69.0465 293.433C69.1415 294.652 69.721 295.969 67.5843 296.14C65.4477 296.312 66.2263 294.665 66.1448 293.885C65.3572 287.712 65.1127 281.468 63.3564 275.427C62.9354 273.988 62.5098 273.446 60.9029 273.279C58.0238 272.986 55.9913 273.812 54.0132 275.959C51.1296 279.081 47.8432 281.825 44.7288 284.744L44.335 284.459C45.5934 281.752 46.8503 279.059 48.1057 276.379C50.6271 271.001 53.0852 265.596 55.0317 259.978C55.3802 258.972 55.7559 258.241 56.9963 258.201C59.7123 258.115 62.4283 257.953 65.1218 257.781C66.5069 257.696 67.1316 258.151 67.1724 259.663C67.3444 265.898 67.5572 272.133 67.8967 278.36C68.1864 283.404 68.6662 288.439 69.0465 293.433Z" fill="#63B3E4"/>
<path d="M106.007 285.42C100.965 283.264 96.3882 281.36 91.8614 279.339C90.5034 278.743 89.6342 278.987 88.3894 279.763C84.6276 282.118 82.9573 285.041 83.3194 289.716C83.7404 295.382 83.3194 295.414 77.5388 294.864C74.5194 294.575 74.456 294.57 74.5964 291.525C75.0853 281.008 75.298 270.486 74.6643 259.969C74.5873 258.697 74.7412 258.065 76.2667 258.056C79.1276 258.056 82.2601 256.987 84.768 257.849C87.2758 258.711 88.2672 262.144 89.9964 264.386C95.3017 271.231 100.48 278.143 106.007 285.42Z" fill="#63B3E4"/>
<path d="M90.363 131.681C90.4852 137.095 89.8062 142.473 89.4576 147.865C88.756 158.125 87.7873 168.376 87.4206 178.649C86.8593 194.332 86.2844 210.01 85.5737 225.689C85.198 234.018 84.2564 242.292 83.7223 250.603C83.6589 251.609 83.4688 252.114 82.3643 252.164C80.1824 252.254 78.0004 252.412 75.8185 252.579C74.886 252.651 74.3881 252.331 74.3609 251.356C74.3338 250.305 74.2478 249.254 74.2432 248.198C74.198 237.451 74.0622 226.695 73.2972 215.984C72.5593 205.647 71.3778 195.334 71.1288 184.965C71.013 177.681 70.4081 170.413 69.3181 163.21C69.0692 161.639 68.7206 161.346 67.2177 161.978C61.935 164.198 61.8445 164.162 62.7589 169.788C63.619 175.089 63.4651 180.431 63.6642 185.755C64.0445 197.102 65.4342 208.373 66.0906 219.693C66.3622 224.412 66.5432 223.239 66.5432 227.972C66.8013 227.972 66.661 233.887 66.919 233.887C66.919 239.373 66.8511 244.859 66.9643 250.346C66.9959 251.979 66.5115 252.363 64.9498 252.317C62.7635 252.3 60.5779 252.408 58.4042 252.642C57.191 252.746 56.6252 252.417 56.4984 251.126C56.0457 246.421 55.3577 241.733 54.9684 237.023C53.9725 224.881 51.8766 212.893 50.0795 200.86C47.5671 184.004 45.014 167.148 43.0223 150.22C42.6782 147.31 42.2482 144.413 41.8045 141.517C41.6884 141.007 41.7067 140.477 41.8574 139.976C42.0081 139.476 42.2862 139.023 42.6646 138.661C44.027 137.361 45.2918 135.963 46.449 134.478C48.3231 131.938 50.763 131.086 53.8729 130.806C65.14 129.8 76.4387 129.606 87.7239 129.042C89.9601 128.934 90.3223 129.836 90.363 131.681Z" fill="#AAAAAA"/>
<path d="M76.3437 55.8064C76.4252 55.2469 75.805 54.6874 76.3799 54.1686C77.2852 54.2317 77.3668 55.0348 77.6067 55.6124C85.8705 75.3743 93.0885 95.5547 99.231 116.07C99.3803 116.571 99.4844 117.09 99.6021 117.6C100.507 121.507 100.507 121.43 96.3519 121.507C83.4778 121.742 70.6083 122.193 57.1141 123.122C59.1194 121.056 60.3869 118.89 63.035 118.236C67.7881 117.063 72.5412 115.827 77.3124 114.807C78.9783 114.451 79.5758 113.666 79.6211 112.1C79.7206 105.558 79.7704 99.0158 79.01 92.5098C78.8894 92.0687 78.8284 91.6134 78.8289 91.1562C77.9235 81.9477 79.7886 85.5842 70.545 80.9415C70.9976 89.1665 72.2696 97.1524 72.3557 105.698C69.3454 103.568 66.7062 101.745 64.1124 99.8595C61.5186 97.9736 58.9927 96.1373 56.5392 94.1476C55.5025 93.3084 54.7918 93.3219 53.8231 94.1476C49.749 97.7344 45.675 101.281 41.3338 105.075C40.3017 101.84 40.0075 98.7315 39.4869 95.6951C39.1881 93.9716 38.9527 93.4392 37.2235 94.6258C31.1486 98.9075 32.1943 96.8817 33.3848 103.916C33.8782 106.799 34.5935 109.646 35.2498 112.488C35.9379 115.457 38.4186 116.576 41.1346 115.109C41.8474 114.69 42.5096 114.19 43.1083 113.62C47.635 109.56 50.7132 105.82 55.1585 101.646C56.6614 100.234 57.5758 100.473 59.0425 101.727C62.0754 104.326 66.249 106.943 69.1597 110.119C66.5206 110.471 64.2256 110.936 61.9169 111.022C59.9492 111.099 58.0654 111.837 56.5708 113.115C55.0625 114.364 53.655 115.73 52.361 117.198C44.7108 125.703 36.4812 133.689 29.4556 142.749C29.2323 142.967 28.9933 143.169 28.7404 143.353C28.247 141.607 27.835 139.996 27.328 138.39C23.5325 125.685 20.3839 112.796 17.8943 99.7738C16.5249 93.086 15.7344 86.2934 15.5314 79.4707C15.5178 78.6448 15.5586 77.8188 15.6536 76.9982C15.8799 75.1304 16.7445 74.792 18.3696 75.5906C23.839 78.3533 29.9569 79.5881 36.0737 79.1639C38.9935 78.9383 41.7412 76.8674 44.6293 75.8026C50.1384 73.7768 54.6651 70.3885 58.5989 66.1429C60.3371 64.2705 61.0795 61.8341 61.6363 59.4383C62.1569 57.2185 62.9943 56.5012 65.3392 57.2276C67.684 57.954 70.2235 58.0713 72.6725 58.4954C75.7869 59.0142 75.882 58.9195 76.3437 55.8064Z" fill="#AAAAAA"/>
<path d="M48.4679 26.5203C48.1511 26.9264 47.8477 27.346 47.5173 27.743C46.4037 29.0605 45.014 30.2335 44.2037 31.7179C41.1799 37.29 35.7025 38.6977 30.2523 40.1866C28.5774 40.6377 26.7214 40.7505 26.5177 43.038C26.1963 46.6474 23.8017 48.1679 20.6737 49.2282C17.1428 50.4148 17.1836 50.5817 14.8432 47.7077C13.6527 46.2504 12.5482 44.7209 11.3305 43.2907C10.5247 42.3477 10.7556 41.9371 11.8601 41.6348C15.133 40.7325 18.3695 39.7173 21.6695 38.9593C23.7516 38.5601 25.6004 37.3795 26.8346 35.6612C31.4383 29.3447 36.6531 23.4794 41.8272 17.614C43.484 15.7281 43.4432 15.8093 44.6337 18.0652C45.8786 20.3888 46.8564 22.8252 47.8794 25.2435C48.0515 25.636 48.2461 26.033 48.4679 26.5203Z" fill="black"/>
<path d="M17.7404 44.193C18.7544 43.9087 19.7322 43.4982 20.7461 43.2229C21.4206 43.0425 22.3441 42.3206 22.7651 43.1508C23.0774 43.7599 22.8103 44.766 22.5794 45.533C22.3803 46.1962 21.8733 46.3812 21.2577 45.7405C19.2659 43.6606 19.121 43.6967 17.4597 46.3541C16.4276 45.3299 16.233 44.6126 17.7404 44.193Z" fill="white"/>
<path d="M42.7235 23.3711C44.2852 25.054 44.4029 26.5564 42.9227 28.1852C41.5647 29.6831 40.2926 31.2712 39.0296 32.8549C38.577 33.4369 38.2329 33.6625 37.6716 32.9722C37.1103 32.2819 36.1597 32.142 34.7202 32.5706L42.7235 23.3711Z" fill="white"/>
<path d="M38.9753 59.2804C39.1156 59.9888 38.7354 60.3452 38.1695 60.7016C36.3272 61.8521 34.4938 63.0207 32.7374 64.2705C31.8321 64.9021 31.2617 64.8119 30.8045 63.8418C30.4378 63.0703 29.2337 62.3619 30.6551 61.4551C32.5473 60.2459 34.4033 58.9781 36.3 57.778C36.9111 57.3945 37.6037 56.6365 38.2872 57.0155C38.9708 57.3945 38.8123 58.4909 38.9753 59.2804Z" fill="black"/>
</g>
<defs>
<clipPath id="clip0_2_12">
<rect width="121" height="304" fill="white"/>
</clipPath>
</defs>
</svg>
