<svg width="346" height="170" viewBox="0 0 346 170" fill="none" xmlns="http://www.w3.org/2000/svg">
<g clip-path="url(#clip0_2_555)">
<path d="M126.498 0.183868C143.406 -0.591968 159.967 1.5186 176.229 6.11479C179.903 7.13714 183.442 8.59243 186.771 10.4499C191.75 13.2554 196.903 15.7079 202.085 18.109C212.022 22.7162 221.147 28.7721 230.722 34.0412C234.75 36.2474 238.379 39.1889 242.252 41.5422C246.955 44.4212 251.584 47.4253 256.25 50.3669C262.52 54.3196 268.621 58.5885 275.285 61.9161C280.818 64.6886 286.565 67.0639 292.097 69.8731C295.675 71.6895 298.818 73.8662 301.318 77.01C313.096 91.8502 325.706 106.058 335.824 122.152C338.325 126.216 340.361 130.546 341.895 135.062C343.702 140.184 344.846 145.398 345.9 150.67C346.162 151.965 346.022 152.696 344.772 153.472C340.306 156.301 335.464 158.49 330.387 159.977C324.703 161.598 319.008 162.551 313.051 162.098C310.019 161.867 307.098 162.466 304.793 164.9C302.772 167.022 300.101 167.051 297.39 166.658C289.796 165.555 282.187 164.536 274.607 163.326C271.833 162.885 269.321 162.731 267.097 164.852C266.16 165.746 264.862 166.044 263.527 166.154C258.127 166.603 252.749 167.154 247.822 169.706C247.028 170.118 246.158 170.029 245.299 169.816C236.41 167.61 227.369 166.165 218.373 164.543C217.348 164.36 216.238 164.253 215.352 163.764C213.054 162.495 210.926 163.051 208.68 163.882C205.63 165.014 202.528 166.011 199.595 167.434C198.591 167.92 197.44 168.011 196.372 167.687C190.168 165.996 183.776 165.499 177.413 165.091C171.928 164.724 166.51 165.948 161.155 166.967C153.638 168.393 146.25 168.625 138.674 167.132C132.724 165.955 126.871 164.264 120.818 163.551C117.782 163.199 114.708 163.344 111.719 163.981C107.204 164.907 102.734 165.992 98.326 167.349C97.6289 167.566 96.9502 167.823 96.1756 167.599C85.9218 164.657 75.2586 163.922 64.824 161.962C61.2758 161.293 57.6943 160.686 54.1571 160.017C51.9809 159.605 50.5757 160.245 48.9306 161.006C44.807 162.916 40.6944 164.845 36.5928 166.794C35.7425 167.144 34.8347 167.334 33.915 167.356C28.6443 167.823 23.3551 167.625 18.0806 167.816C13.1787 167.992 8.25836 167.654 3.37489 168.316C2.19828 168.478 1.7778 168.062 1.61919 166.9C1.25035 164.099 0.936836 161.267 1.25035 158.476C2.05812 151.156 1.15078 143.934 0.461046 136.672C-0.401055 127.758 -0.0736376 118.769 1.43477 109.941C2.7958 101.976 3.96134 93.9791 5.49204 86.0406C6.15989 82.7987 7.35471 79.6875 9.02925 76.8298C13.0275 69.7958 17.0073 62.7508 21.2822 55.8712C23.5911 52.1612 26.2284 48.738 29.5922 45.8663C37.9981 38.7036 45.9282 30.9489 54.9243 24.54C65.0527 17.3074 75.1369 9.94249 86.6964 4.98596C90.4811 3.35957 94.5087 2.36575 98.6174 2.0444C101.314 1.82746 103.999 1.55171 106.666 1.07003C111.272 0.239035 115.887 -0.238966 120.6 0.176529C122.552 0.323607 124.532 0.180191 126.498 0.183868Z" fill="black"/>
<path d="M121.113 33.7176C124.584 35.6112 126.753 40.9502 125.65 44.7485C124.208 49.7454 122.736 54.7314 121.309 59.732C121.06 60.6168 120.579 61.4191 119.914 62.0558C117.928 63.9729 115.799 65.7368 113.544 67.3323C110.679 69.4097 107.816 71.2298 103.955 70.1819C102.697 69.8399 101.255 70.0238 99.8973 70.1451C95.7662 70.5128 92.443 68.8655 89.6545 66.049C85.4276 61.7837 81.315 57.4008 77.1139 53.0951C76.2233 52.1498 75.7149 50.9096 75.6865 49.613C75.6646 48.2523 76.0498 46.9159 76.793 45.7743C79.5003 41.6194 82.1965 37.4534 85.0514 33.4014C87.7808 29.5222 92.0594 28.3824 96.4191 27.7609C99.1448 27.3712 101.952 27.3933 104.696 27.3013C107.224 27.1553 109.743 27.7062 111.977 28.8935C115.012 30.5481 118.089 32.0703 121.113 33.7176Z" fill="#02C466"/>
<path d="M340.294 145.166C341.769 149.03 341.46 149.747 337.712 151.759C333.548 153.998 329.177 155.494 324.404 155.66C323.036 155.711 321.708 155.961 320.598 156.844C320.004 157.311 319.311 157.186 318.647 157.189C316.006 157.215 313.365 157.189 310.724 157.234C307.611 157.289 304.786 158.12 302.513 160.388C301.311 161.587 299.972 161.951 298.183 161.731C289.954 160.708 281.77 159.396 273.563 158.201C270.638 157.774 267.964 158.568 265.496 160.017C264.37 160.741 263.087 161.19 261.753 161.326C256.722 161.731 251.728 162.392 247.084 164.58C246.591 164.837 246.021 164.902 245.483 164.764C236.631 162.436 227.384 161.771 218.613 159.285C212.343 157.509 207.046 159.407 201.591 161.267C198.821 162.216 196.368 162.598 193.476 162.003C182.972 159.819 172.412 159.513 161.83 161.731C157.444 162.646 152.977 163.073 148.614 164.19C147.054 164.591 145.582 163.885 144.11 163.543C138.67 162.286 133.27 160.841 127.815 159.649C124.643 158.958 121.397 158.546 118.17 158.149C116.008 157.881 113.899 158.517 111.796 158.918C107.803 159.624 103.854 160.557 99.9674 161.712C98.8608 162.058 98.5326 161.951 98.3777 160.716C97.6719 155.124 97.1445 149.514 96.7953 143.886C96.5076 139.688 95.5539 135.561 93.97 131.66C92.1995 127.149 89.566 123.74 85.9809 120.582C79.6036 114.971 74.8492 108.036 71.2899 100.318C70.519 98.6525 71.4632 94.7807 72.9534 93.6151C77.288 90.2765 82.1492 87.6795 87.3382 85.9302C93.8261 83.6652 100.266 81.2421 106.168 77.7233C112.372 74.0243 118.797 70.5863 123.843 65.2217C125.145 63.9234 126.13 62.343 126.72 60.6034C127.926 56.8125 129.423 53.1025 130.493 49.2747C131.249 46.5575 130.983 43.7262 130.212 40.9759C129.715 39.2073 129.213 37.435 128.811 35.6443C128.54 34.3801 127.988 33.1926 127.195 32.1698C126.402 31.147 125.389 30.315 124.23 29.7354C120.718 27.8381 117.178 25.996 113.637 24.1538C111.465 22.9741 109.029 22.3607 106.555 22.3705C100.797 22.4698 94.9806 22.1499 89.4701 24.4002C88.4342 24.7785 87.5177 25.4244 86.8145 26.2718C84.4723 29.2133 81.8277 31.8497 79.1942 34.5155C78.1614 35.5597 77.1655 36.6518 76.1955 37.7585C73.4955 40.8398 71.5038 44.1086 72.5587 48.5357C72.9275 50.1021 72.7468 51.8449 72.6214 53.4812C72.4997 55.0255 73.0197 56.1102 74.0968 57.2023C77.9475 61.0704 81.706 65.0342 85.4829 68.9685C89.2045 72.8477 93.5975 75.2744 99.3035 75.6752C95.8917 77.1092 92.5205 78.6609 89.0496 79.9478C84.2104 81.7459 79.4007 83.5623 74.9267 86.1987C72.5789 87.6519 70.3234 89.2482 68.1732 90.9787C67.3301 91.6051 66.7693 92.5381 66.613 93.5746C66.3031 95.3212 65.8753 97.0493 65.4622 98.7701C65.277 99.484 65.3582 100.241 65.6908 100.899C66.388 102.403 67.0961 103.899 67.7158 105.433C69.903 110.838 74.1632 114.765 77.6745 119.196C79.8326 121.954 82.3366 124.426 85.1252 126.549C89.9201 130.138 90.9529 135.404 91.4914 140.831C92.1295 147.229 92.3618 153.667 93.284 160.039C93.4426 161.142 93.0737 161.352 92.0077 161.308C87.4931 161.113 83.2293 159.352 78.7294 159.175C69.6928 158.807 61.0471 156.421 52.3277 154.395C51.4978 154.204 50.8966 154.52 50.24 154.825C44.9066 157.329 39.5621 159.819 34.247 162.367C33.3149 162.817 32.282 163.019 31.2483 162.955C23.569 162.624 15.886 162.587 8.23257 163.396C6.67605 163.562 6.01952 163.282 6.16337 161.517C6.79631 153.331 6.58125 145.101 5.52159 136.959C4.58189 129.654 4.65388 122.256 5.73552 114.971C6.76459 108.194 7.60554 101.366 9.0219 94.663C9.42393 92.7473 9.65261 90.7948 9.98457 88.8644C10.5992 85.2969 11.8483 81.8676 13.673 78.7381C17.4831 72.1601 21.1789 65.5011 25.1846 59.0554C27.3571 55.5476 29.7582 52.2531 32.9303 49.5468C41.5759 42.1929 49.6942 34.1809 59.0111 27.6617C68.4977 21.0432 77.8553 14.1047 88.6402 9.5343C91.9733 8.09847 95.5238 7.22851 99.1449 6.96043C102.833 6.69937 106.463 6.11473 110.103 5.53377C112.652 5.12931 115.226 4.79839 117.812 5.01165C121.5 5.30213 125.17 5.18081 128.877 5.0705C144.443 4.63741 159.981 6.6222 174.935 10.9536C178.261 11.8854 181.466 13.2073 184.48 14.8916C189.242 17.5831 194.199 19.8776 199.116 22.2676C211.775 28.4154 223.751 35.7877 235.838 42.9578C237.243 43.7924 238.184 45.1051 239.287 46.267C240.083 47.0906 240.954 47.7378 242.178 47.6128C242.993 47.5319 243.58 48.0025 244.188 48.3996C248.917 51.492 253.682 54.5254 258.348 57.7023C265.083 62.3139 272.247 66.2701 279.741 69.5163C284.204 71.4357 288.453 73.7816 292.791 75.9473C294.049 76.6042 295.152 77.522 296.026 78.6389C308.537 93.9938 321.594 108.93 332.172 125.752C334.262 128.999 335.864 132.535 336.927 136.246C337.79 139.279 339.162 142.188 340.294 145.166Z" fill="#353535"/>
<path d="M94.586 96.6302C93.4536 96.8618 93.5679 96.3103 93.6454 95.8139C93.8188 94.7108 94.0142 93.6445 94.1839 92.5561C94.3536 91.4678 95.1687 91.5229 95.9691 91.3648C104.821 89.6109 113.714 88.1438 122.013 84.408C123.459 83.7572 124.842 82.9372 126.255 82.2018C127.088 81.7643 130.054 82.9961 130.209 83.8896C130.312 84.4852 129.681 84.6249 129.368 84.9926C125.897 88.7505 121.253 90.4161 116.551 91.7876C109.482 93.8226 102.293 95.4129 95.0249 96.5493L94.586 96.6302Z" fill="black"/>
<path d="M87.8878 102.039C89.0254 102.117 90.1339 102.432 91.141 102.966C93.2618 104.069 95.379 105.172 97.7359 105.694C98.7133 105.911 98.8424 106.33 98.433 107.238C96.8322 110.867 96.7584 110.948 93.0036 109.404C91.5282 108.801 90.1303 108.043 88.7103 107.33C88.1238 107.036 86.4972 102.984 86.7185 102.436C86.9767 101.796 87.5743 102.201 87.8878 102.039Z" fill="black"/>
<path d="M57.757 50.0102C57.7054 50.6794 57.1595 50.7897 56.7575 51.0213C54.6092 52.1993 52.5905 53.598 50.7343 55.1947C49.3954 56.3823 48.8458 54.7314 48.0122 54.3159C47.0864 53.8563 47.9532 53.2937 48.2593 52.8672C50.2953 50.069 53.6039 49.5836 56.5509 48.5137C57.3919 48.2085 57.3697 49.5028 57.757 50.0102Z" fill="black"/>
<path d="M79.7733 146.302C79.9946 147.405 79.4265 147.607 78.6667 147.714C77.9069 147.821 77.0032 148.17 76.7709 147.012C76.4352 145.317 75.6459 143.816 74.9267 142.283C74.65 141.706 74.3291 140.904 75.2365 140.581C75.9262 140.331 76.7672 139.912 77.4053 140.765C78.6667 142.474 80.0978 144.118 79.7733 146.302Z" fill="black"/>
<path d="M61.2057 57.4302C61.2057 57.842 58.7345 60.585 58.4136 60.4821C57.9494 60.3535 57.5265 60.107 57.1865 59.7667C56.8464 59.4264 56.6007 59.0039 56.4735 58.5407C56.2522 57.6656 58.4468 55.7903 59.5422 55.805C60.6377 55.8197 60.7189 56.8713 61.2057 57.4302Z" fill="black"/>
<path d="M170.464 53.6283C170.955 53.5768 174.09 56.0587 174.012 56.3198C173.882 56.6552 173.698 56.967 173.467 57.2427C173.175 57.6509 172.858 57.5001 172.548 57.2427C171.857 56.743 171.083 56.3695 170.261 56.1396C169.867 55.9999 169.081 56.0882 169.372 55.3417C169.675 54.7339 170.041 54.1595 170.464 53.6283Z" fill="black"/>
<path d="M68.5936 141.636C68.4977 142.463 68.3649 143.184 68.3391 143.908C68.3133 144.71 68.1326 145.228 67.1699 144.982C66.4322 144.798 65.9269 144.511 66.2293 143.607C66.458 142.916 66.5982 142.202 66.7863 141.493C66.9744 140.783 67.1182 140.117 68.0404 140.261C69.062 140.419 68.3686 141.246 68.5936 141.636Z" fill="black"/>
<path d="M205.541 109.349C206.74 108.959 207.658 108.613 208.595 108.367C209.005 108.253 209.587 107.779 209.827 108.518C210 109.062 210.196 109.687 209.687 110.239C208.58 111.452 207.275 111.456 206.223 110.213C206.035 109.992 205.873 109.761 205.541 109.349Z" fill="black"/>
<path d="M188.169 43.0424C188.324 44.0756 187.896 44.5462 186.94 44.3697C186.291 44.2521 185.056 44.7374 185.373 43.3255C185.531 42.6158 185.063 41.351 186.229 41.3142C187.18 41.2811 188.453 41.5311 188.169 43.0424Z" fill="black"/>
<path d="M176.786 52.1281C178.335 52.1281 179.342 52.1281 180.349 52.1281C181.356 52.1281 181.423 52.8304 181.456 53.4775C181.482 54.2718 180.766 54.1798 180.253 54.2129C178.852 54.2975 178.144 53.2165 176.786 52.1281Z" fill="black"/>
<path d="M97.71 63.773C96.5113 63.6406 96.4523 62.5302 96.0392 61.7985C95.5855 60.9896 96.408 60.916 96.8838 60.7579C98.6801 60.1402 100.495 59.5703 102.306 58.9893C102.833 58.8165 103.342 58.8165 103.394 59.5151C103.457 60.302 104.434 61.3536 103.453 61.8205C101.635 62.6736 99.6465 63.1442 97.71 63.773Z" fill="black"/>
<path d="M89.8168 42.1525C89.85 42.7151 89.4959 43.0019 89.1714 43.2556C87.9321 44.2374 86.6669 45.186 85.4202 46.1567C85.0182 46.4693 84.7084 46.4104 84.2842 46.1347C82.4769 44.9544 82.4658 44.5058 84.2068 43.1931C85.2285 42.4283 86.1801 41.5679 87.1796 40.7737C87.696 40.3619 88.2861 39.7294 88.939 40.0898C89.6435 40.5089 89.5365 41.5017 89.8168 42.1525Z" fill="black"/>
<path d="M106.286 36.8835C106.286 37.2512 105.976 37.3063 105.681 37.3835C104.139 37.799 102.608 38.2734 101.052 38.608C99.6133 38.9168 99.2592 37.5637 98.6543 36.7474C98.3482 36.3319 99.0231 36.229 99.3219 36.1481C100.982 35.6995 102.641 35.2693 104.32 34.8759C105.002 34.7214 106.348 36.1113 106.286 36.8835Z" fill="black"/>
</g>
<defs>
<clipPath id="clip0_2_555">
<rect width="346" height="170" fill="white"/>
</clipPath>
</defs>
</svg>
